<svg width="43" height="43" viewBox="0 0 43 43" fill="none" xmlns="http://www.w3.org/2000/svg">
<path d="M38.7588 11.909C38.1959 10.6057 37.3843 9.42471 36.3694 8.43206C35.3538 7.43645 34.1563 6.64525 32.8421 6.10149C31.4793 5.53541 30.0177 5.24566 28.5421 5.24905C26.4719 5.24905 24.4521 5.81595 22.6968 6.88675C22.2769 7.1429 21.8779 7.42425 21.5 7.73079C21.1221 7.42425 20.7231 7.1429 20.3032 6.88675C18.5479 5.81595 16.5281 5.24905 14.4579 5.24905C12.9672 5.24905 11.5227 5.5346 10.1579 6.10149C8.83935 6.64739 7.65098 7.43265 6.63057 8.43206C5.61434 9.42359 4.80255 10.6049 4.24121 11.909C3.65752 13.2654 3.35938 14.7057 3.35938 16.188C3.35938 17.5864 3.64492 19.0435 4.21182 20.5258C4.68633 21.7646 5.3666 23.0495 6.23584 24.3471C7.61318 26.4005 9.50703 28.5421 11.8586 30.7131C15.7555 34.3118 19.6146 36.7978 19.7783 36.8986L20.7735 37.5368C21.2145 37.8182 21.7813 37.8182 22.2223 37.5368L23.2175 36.8986C23.3813 36.7936 27.2361 34.3118 31.1372 30.7131C33.4888 28.5421 35.3826 26.4005 36.76 24.3471C37.6292 23.0495 38.3137 21.7646 38.784 20.5258C39.3509 19.0435 39.6364 17.5864 39.6364 16.188C39.6406 14.7057 39.3425 13.2654 38.7588 11.909ZM21.5 34.2153C21.5 34.2153 6.55078 24.6368 6.55078 16.188C6.55078 11.909 10.0907 8.44046 14.4579 8.44046C17.5275 8.44046 20.1898 10.1537 21.5 12.6565C22.8102 10.1537 25.4725 8.44046 28.5421 8.44046C32.9093 8.44046 36.4492 11.909 36.4492 16.188C36.4492 24.6368 21.5 34.2153 21.5 34.2153Z" fill="#195557"/>
<path d="M28.5421 8.44043C25.4725 8.44043 22.8102 10.1537 21.5 12.6564C20.1898 10.1537 17.5275 8.44043 14.4579 8.44043C10.0907 8.44043 6.55078 11.909 6.55078 16.188C6.55078 24.6368 21.5 34.2152 21.5 34.2152C21.5 34.2152 36.4492 24.6368 36.4492 16.188C36.4492 11.909 32.9093 8.44043 28.5421 8.44043Z" fill="black" fill-opacity="0.1"/>
</svg>
