<svg width="121" height="57" viewBox="0 0 121 57" fill="none" xmlns="http://www.w3.org/2000/svg">
<path d="M69.136 22.2364C69.136 22.6688 69.4866 23.0194 69.919 23.0194H71.3554C71.7878 23.0194 72.1384 22.6688 72.1384 22.2364C72.1384 21.804 71.7878 21.4534 71.3554 21.4534H69.919C69.4866 21.4534 69.136 21.804 69.136 22.2364Z"/>
<path d="M79.3901 26.4806C79.229 26.4806 79.0713 26.4951 78.9174 26.5212L73.7566 17.9589C73.7773 17.9336 73.7971 17.9073 73.815 17.879L77.2807 12.3746C77.4244 12.1464 77.4405 11.8603 77.3235 11.6174C77.2064 11.3745 76.9725 11.2088 76.7045 11.1791L71.0187 10.5477L71.6642 4.86373C71.6946 4.59603 71.5854 4.33146 71.3746 4.16334C71.1642 3.99531 70.882 3.94723 70.6275 4.03631L65.228 5.92653L63.3425 0.525034C63.2536 0.270412 63.0401 0.0794463 62.7772 0.0195679C62.5144 -0.0401263 62.239 0.0392819 62.0487 0.230248L58.0091 4.28218L53.9695 0.230248C53.7791 0.0392819 53.5037 -0.0403106 53.241 0.0195679C52.9781 0.0794463 52.7646 0.270505 52.6757 0.524942L50.7902 5.92644L45.3906 4.03631C45.1362 3.94732 44.854 3.99522 44.6434 4.16334C44.4328 4.33137 44.3234 4.59594 44.3538 4.86373L44.9994 10.5477L39.3136 11.1792C39.0455 11.2089 38.8117 11.3745 38.6946 11.6175C38.5775 11.8604 38.5937 12.1464 38.7374 12.3747L41.7854 17.2156L36.9416 20.2576C36.7135 20.4008 36.575 20.6513 36.575 20.9206C36.575 21.19 36.7135 21.4404 36.9416 21.5837L41.7854 24.6257L38.7374 29.4667C38.5855 29.7079 38.5768 30.0125 38.7144 30.262C38.852 30.5115 39.1142 30.6666 39.3992 30.667L76.9784 30.7093C77.4672 31.5329 78.3651 32.0865 79.3902 32.0865C80.9357 32.0865 82.1932 30.8291 82.1932 29.2835C82.193 27.7379 80.9356 26.4806 79.3901 26.4806ZM76.5909 29.1428L62.6296 29.127C60.7809 22.8652 65.359 17.9954 70.6997 15.9213L77.5047 27.2112C76.9738 27.6947 76.6288 28.379 76.5909 29.1428ZM43.5284 24.7968C43.6391 24.6209 43.6754 24.4082 43.6292 24.2056C43.583 24.003 43.4583 23.8271 43.2822 23.7164L38.8304 20.9206L43.2822 18.1247C43.4583 18.0141 43.5831 17.8382 43.6292 17.6355C43.6755 17.4329 43.6391 17.2202 43.5284 17.0443L40.7285 12.5975L45.9524 12.0174C46.1592 11.9944 46.3483 11.8901 46.4781 11.7276C46.6079 11.565 46.6676 11.3574 46.6441 11.1508L46.0507 5.92644L51.0124 7.66337C51.2085 7.732 51.4238 7.71975 51.6111 7.62975C51.7983 7.53947 51.9419 7.37854 52.0105 7.1825L53.7425 2.22061L57.4545 5.94403C57.6015 6.09143 57.801 6.17424 58.0091 6.17424C58.2172 6.17424 58.4167 6.09143 58.5637 5.94403L62.2758 2.22061L64.0077 7.1825C64.0762 7.37872 64.2199 7.53966 64.4071 7.62984C64.5942 7.72003 64.8096 7.73219 65.0058 7.66347L69.9676 5.92653L69.3742 11.1509C69.3507 11.3575 69.4105 11.5651 69.5402 11.7276C69.6699 11.8903 69.859 11.9945 70.0658 12.0175L75.2897 12.5975L72.8554 16.4636L71.7076 14.5593C71.5166 14.2424 71.1299 14.1027 70.7808 14.2235C67.1899 15.4669 64.2404 17.6385 62.4758 20.3383C60.7185 23.0272 60.2178 26.0454 61.0048 29.125L40.8176 29.1023L43.5284 24.7968ZM79.3901 30.5204C78.7082 30.5204 78.1533 29.9655 78.1533 29.2835C78.1533 28.6014 78.7082 28.0465 79.3901 28.0465C80.0721 28.0465 80.627 28.6014 80.627 29.2835C80.627 29.9655 80.0721 30.5204 79.3901 30.5204Z" />
<path d="M15.488 55.545C15.532 55.545 15.554 55.589 15.554 55.677C15.554 55.765 15.532 55.809 15.488 55.809C14.9747 55.809 14.564 55.8017 14.256 55.787L12.562 55.765L10.582 55.787C10.318 55.8017 9.95867 55.809 9.504 55.809C9.46 55.809 9.438 55.765 9.438 55.677C9.438 55.589 9.46 55.545 9.504 55.545C10.0467 55.545 10.4427 55.5084 10.692 55.435C10.9413 55.3617 11.11 55.2224 11.198 55.017C11.286 54.8117 11.33 54.4817 11.33 54.027V48.967H4.224V54.027C4.224 54.467 4.268 54.797 4.356 55.017C4.444 55.2224 4.61267 55.3617 4.862 55.435C5.11133 55.5084 5.50733 55.545 6.05 55.545C6.07933 55.545 6.094 55.589 6.094 55.677C6.094 55.765 6.07933 55.809 6.05 55.809C5.53667 55.809 5.126 55.8017 4.818 55.787L2.904 55.765L1.254 55.787C0.960667 55.8017 0.557333 55.809 0.044 55.809C0.0146667 55.809 0 55.765 0 55.677C0 55.589 0.0146667 55.545 0.044 55.545C0.557333 55.545 0.931333 55.5084 1.166 55.435C1.40067 55.3617 1.562 55.2224 1.65 55.017C1.738 54.797 1.782 54.467 1.782 54.027V43.841C1.782 43.401 1.738 43.0784 1.65 42.873C1.562 42.6677 1.40067 42.5284 1.166 42.455C0.946 42.367 0.586667 42.323 0.088 42.323C0.044 42.323 0.022 42.279 0.022 42.191C0.022 42.103 0.044 42.059 0.088 42.059L1.276 42.081C1.95067 42.1104 2.49333 42.125 2.904 42.125C3.46133 42.125 4.10667 42.1104 4.84 42.081L6.05 42.059C6.07933 42.059 6.094 42.103 6.094 42.191C6.094 42.279 6.07933 42.323 6.05 42.323C5.522 42.323 5.13333 42.367 4.884 42.455C4.63467 42.543 4.45867 42.697 4.356 42.917C4.268 43.1224 4.224 43.445 4.224 43.885V48.351H11.33V43.885C11.33 43.445 11.286 43.1224 11.198 42.917C11.11 42.697 10.9413 42.543 10.692 42.455C10.4427 42.367 10.0467 42.323 9.504 42.323C9.46 42.323 9.438 42.279 9.438 42.191C9.438 42.103 9.46 42.059 9.504 42.059L10.582 42.081C11.3153 42.1104 11.9753 42.125 12.562 42.125C12.958 42.125 13.5227 42.1104 14.256 42.081L15.488 42.059C15.532 42.059 15.554 42.103 15.554 42.191C15.554 42.279 15.532 42.323 15.488 42.323C14.9893 42.323 14.6153 42.367 14.366 42.455C14.1313 42.5284 13.97 42.6677 13.882 42.873C13.8087 43.0784 13.772 43.401 13.772 43.841V54.027C13.772 54.467 13.8087 54.797 13.882 55.017C13.97 55.2224 14.1313 55.3617 14.366 55.435C14.6007 55.5084 14.9747 55.545 15.488 55.545Z" />
<path d="M27.0968 52.311C27.0968 52.2817 27.1261 52.267 27.1848 52.267C27.2288 52.267 27.2654 52.2817 27.2948 52.311C27.3388 52.3257 27.3608 52.3404 27.3608 52.355C27.2141 53.499 27.1408 54.5404 27.1408 55.479C27.1408 55.5964 27.1188 55.6844 27.0748 55.743C27.0308 55.787 26.9428 55.809 26.8108 55.809H17.0868C17.0428 55.809 17.0208 55.765 17.0208 55.677C17.0208 55.589 17.0428 55.545 17.0868 55.545C17.5561 55.545 17.8934 55.5084 18.0988 55.435C18.3188 55.3617 18.4654 55.2224 18.5388 55.017C18.6121 54.797 18.6488 54.467 18.6488 54.027V43.841C18.6488 43.401 18.6121 43.0784 18.5388 42.873C18.4654 42.6677 18.3188 42.5284 18.0988 42.455C17.8788 42.367 17.5414 42.323 17.0868 42.323C17.0428 42.323 17.0208 42.279 17.0208 42.191C17.0208 42.103 17.0428 42.059 17.0868 42.059H26.4148C26.5614 42.059 26.6348 42.125 26.6348 42.257L26.6788 45.183C26.6788 45.2124 26.6348 45.2344 26.5468 45.249C26.4734 45.2637 26.4294 45.249 26.4148 45.205C26.1801 44.3544 25.7841 43.7237 25.2268 43.313C24.6694 42.9024 23.9361 42.697 23.0268 42.697H22.3668C21.9268 42.697 21.6041 42.7924 21.3988 42.983C21.1934 43.1737 21.0908 43.467 21.0908 43.863V48.351H22.9168C23.7674 48.351 24.4201 48.2044 24.8748 47.911C25.3294 47.6177 25.5568 47.207 25.5568 46.679C25.5568 46.635 25.5934 46.613 25.6668 46.613C25.7548 46.613 25.7988 46.635 25.7988 46.679L25.7768 48.659L25.7988 49.715C25.8281 50.2137 25.8428 50.6097 25.8428 50.903C25.8428 50.9324 25.7988 50.947 25.7108 50.947C25.6228 50.947 25.5788 50.9324 25.5788 50.903C25.5788 50.3017 25.3441 49.8324 24.8748 49.495C24.4201 49.143 23.7601 48.967 22.8948 48.967H21.0908V53.939C21.0908 54.3644 21.1714 54.6797 21.3328 54.885C21.4941 55.0904 21.7508 55.193 22.1028 55.193H22.8288C23.9728 55.193 24.8894 54.9584 25.5788 54.489C26.2681 54.0197 26.7741 53.2937 27.0968 52.311Z" />
<path d="M35.4955 55.897C35.0261 55.897 34.4688 55.875 33.8235 55.831C33.5888 55.8164 33.2955 55.8017 32.9435 55.787C32.6061 55.7724 32.2248 55.765 31.7995 55.765L30.1715 55.787C29.8781 55.8017 29.4821 55.809 28.9835 55.809C28.9541 55.809 28.9395 55.765 28.9395 55.677C28.9395 55.589 28.9541 55.545 28.9835 55.545C29.4528 55.545 29.7975 55.5084 30.0175 55.435C30.2375 55.3617 30.3841 55.2224 30.4575 55.017C30.5455 54.797 30.5895 54.467 30.5895 54.027V43.841C30.5895 43.401 30.5455 43.0784 30.4575 42.873C30.3841 42.6677 30.2375 42.5284 30.0175 42.455C29.8121 42.367 29.4821 42.323 29.0275 42.323C28.9835 42.323 28.9615 42.279 28.9615 42.191C28.9615 42.103 28.9835 42.059 29.0275 42.059L30.1935 42.081C30.8681 42.1104 31.4035 42.125 31.7995 42.125C32.4008 42.125 33.0168 42.103 33.6475 42.059C34.4101 42.0297 34.9235 42.015 35.1875 42.015C36.6688 42.015 37.9815 42.3084 39.1255 42.895C40.2841 43.4817 41.1788 44.281 41.8095 45.293C42.4401 46.305 42.7555 47.4417 42.7555 48.703C42.7555 50.1257 42.4255 51.387 41.7655 52.487C41.1201 53.5724 40.2401 54.4157 39.1255 55.017C38.0255 55.6037 36.8155 55.897 35.4955 55.897ZM35.2755 55.391C36.2141 55.391 37.0428 55.1564 37.7615 54.687C38.4801 54.203 39.0375 53.4917 39.4335 52.553C39.8441 51.6144 40.0495 50.4924 40.0495 49.187C40.0495 47.9404 39.8588 46.811 39.4775 45.799C39.0961 44.7724 38.5535 43.9657 37.8495 43.379C37.1455 42.7924 36.3315 42.499 35.4075 42.499C34.4981 42.499 33.8748 42.587 33.5375 42.763C33.2001 42.939 33.0315 43.313 33.0315 43.885V53.785C33.0315 54.3717 33.1855 54.7897 33.4935 55.039C33.8015 55.2737 34.3955 55.391 35.2755 55.391Z" />
<path d="M52.8332 56.073C51.2198 56.073 49.8118 55.765 48.6092 55.149C47.4065 54.533 46.4898 53.697 45.8592 52.641C45.2285 51.5704 44.9132 50.3824 44.9132 49.077C44.9132 47.669 45.2725 46.415 45.9912 45.315C46.7245 44.2004 47.7218 43.3424 48.9832 42.741C50.2592 42.125 51.6818 41.817 53.2512 41.817C53.9405 41.817 54.6372 41.8757 55.3412 41.993C56.0452 42.0957 56.6098 42.235 57.0352 42.411C57.1672 42.455 57.2478 42.5137 57.2772 42.587C57.3212 42.6457 57.3505 42.7557 57.3652 42.917L57.6512 45.975C57.6512 46.019 57.6145 46.0484 57.5412 46.063C57.4678 46.0777 57.4165 46.0557 57.3872 45.997C56.8738 44.8677 56.1625 43.9877 55.2532 43.357C54.3585 42.7264 53.3318 42.411 52.1732 42.411C50.6772 42.411 49.5332 42.9317 48.7412 43.973C47.9638 45.0144 47.5752 46.437 47.5752 48.241C47.5752 49.693 47.8245 50.991 48.3232 52.135C48.8218 53.2644 49.5112 54.1444 50.3912 54.775C51.2858 55.391 52.2832 55.699 53.3832 55.699C53.9845 55.699 54.4465 55.633 54.7692 55.501C55.0918 55.369 55.3265 55.1124 55.4732 54.731C55.6198 54.3497 55.6932 53.785 55.6932 53.037C55.6932 52.2744 55.6492 51.7464 55.5612 51.453C55.4732 51.145 55.2825 50.9397 54.9892 50.837C54.7105 50.7344 54.2192 50.683 53.5152 50.683C53.4272 50.683 53.3832 50.6244 53.3832 50.507C53.3832 50.463 53.3905 50.4264 53.4052 50.397C53.4345 50.353 53.4638 50.331 53.4932 50.331C54.7398 50.4044 55.7445 50.441 56.5072 50.441C57.2552 50.441 58.0325 50.419 58.8392 50.375C58.8685 50.375 58.8905 50.397 58.9052 50.441C58.9345 50.4704 58.9492 50.4997 58.9492 50.529C58.9492 50.6317 58.9125 50.683 58.8392 50.683C58.5752 50.6684 58.3918 50.7197 58.2892 50.837C58.1865 50.9397 58.1205 51.1597 58.0912 51.497C58.0618 51.8197 58.0472 52.4064 58.0472 53.257C58.0472 53.917 58.0692 54.3864 58.1132 54.665C58.1718 54.9437 58.2012 55.1197 58.2012 55.193C58.2012 55.281 58.1792 55.3397 58.1352 55.369C58.1058 55.3984 58.0398 55.4277 57.9372 55.457C56.0452 55.8677 54.3438 56.073 52.8332 56.073Z" />
<path d="M70.5597 52.311C70.5597 52.2817 70.589 52.267 70.6477 52.267C70.6917 52.267 70.7283 52.2817 70.7577 52.311C70.8017 52.3257 70.8237 52.3404 70.8237 52.355C70.677 53.499 70.6037 54.5404 70.6037 55.479C70.6037 55.5964 70.5817 55.6844 70.5377 55.743C70.4937 55.787 70.4057 55.809 70.2737 55.809H60.5497C60.5057 55.809 60.4837 55.765 60.4837 55.677C60.4837 55.589 60.5057 55.545 60.5497 55.545C61.019 55.545 61.3563 55.5084 61.5617 55.435C61.7817 55.3617 61.9283 55.2224 62.0017 55.017C62.075 54.797 62.1117 54.467 62.1117 54.027V43.841C62.1117 43.401 62.075 43.0784 62.0017 42.873C61.9283 42.6677 61.7817 42.5284 61.5617 42.455C61.3417 42.367 61.0043 42.323 60.5497 42.323C60.5057 42.323 60.4837 42.279 60.4837 42.191C60.4837 42.103 60.5057 42.059 60.5497 42.059H69.8777C70.0243 42.059 70.0977 42.125 70.0977 42.257L70.1417 45.183C70.1417 45.2124 70.0977 45.2344 70.0097 45.249C69.9363 45.2637 69.8923 45.249 69.8777 45.205C69.643 44.3544 69.247 43.7237 68.6897 43.313C68.1323 42.9024 67.399 42.697 66.4897 42.697H65.8297C65.3897 42.697 65.067 42.7924 64.8617 42.983C64.6563 43.1737 64.5537 43.467 64.5537 43.863V48.351H66.3797C67.2303 48.351 67.883 48.2044 68.3377 47.911C68.7923 47.6177 69.0197 47.207 69.0197 46.679C69.0197 46.635 69.0563 46.613 69.1297 46.613C69.2177 46.613 69.2617 46.635 69.2617 46.679L69.2397 48.659L69.2617 49.715C69.291 50.2137 69.3057 50.6097 69.3057 50.903C69.3057 50.9324 69.2617 50.947 69.1737 50.947C69.0857 50.947 69.0417 50.9324 69.0417 50.903C69.0417 50.3017 68.807 49.8324 68.3377 49.495C67.883 49.143 67.223 48.967 66.3577 48.967H64.5537V53.939C64.5537 54.3644 64.6343 54.6797 64.7957 54.885C64.957 55.0904 65.2137 55.193 65.5657 55.193H66.2917C67.4357 55.193 68.3523 54.9584 69.0417 54.489C69.731 54.0197 70.237 53.2937 70.5597 52.311Z" />
<path d="M87.8903 55.545C87.9343 55.545 87.9563 55.589 87.9563 55.677C87.9563 55.765 87.9343 55.809 87.8903 55.809C87.377 55.809 86.9663 55.8017 86.6583 55.787L84.9643 55.765L82.9843 55.787C82.7203 55.8017 82.361 55.809 81.9063 55.809C81.8623 55.809 81.8403 55.765 81.8403 55.677C81.8403 55.589 81.8623 55.545 81.9063 55.545C82.449 55.545 82.845 55.5084 83.0943 55.435C83.3437 55.3617 83.5123 55.2224 83.6003 55.017C83.6883 54.8117 83.7323 54.4817 83.7323 54.027V48.967H76.6263V54.027C76.6263 54.467 76.6703 54.797 76.7583 55.017C76.8463 55.2224 77.015 55.3617 77.2643 55.435C77.5137 55.5084 77.9097 55.545 78.4523 55.545C78.4817 55.545 78.4963 55.589 78.4963 55.677C78.4963 55.765 78.4817 55.809 78.4523 55.809C77.939 55.809 77.5283 55.8017 77.2203 55.787L75.3063 55.765L73.6563 55.787C73.363 55.8017 72.9597 55.809 72.4463 55.809C72.417 55.809 72.4023 55.765 72.4023 55.677C72.4023 55.589 72.417 55.545 72.4463 55.545C72.9597 55.545 73.3337 55.5084 73.5683 55.435C73.803 55.3617 73.9643 55.2224 74.0523 55.017C74.1403 54.797 74.1843 54.467 74.1843 54.027V43.841C74.1843 43.401 74.1403 43.0784 74.0523 42.873C73.9643 42.6677 73.803 42.5284 73.5683 42.455C73.3483 42.367 72.989 42.323 72.4903 42.323C72.4463 42.323 72.4243 42.279 72.4243 42.191C72.4243 42.103 72.4463 42.059 72.4903 42.059L73.6783 42.081C74.353 42.1104 74.8957 42.125 75.3063 42.125C75.8637 42.125 76.509 42.1104 77.2423 42.081L78.4523 42.059C78.4817 42.059 78.4963 42.103 78.4963 42.191C78.4963 42.279 78.4817 42.323 78.4523 42.323C77.9243 42.323 77.5357 42.367 77.2863 42.455C77.037 42.543 76.861 42.697 76.7583 42.917C76.6703 43.1224 76.6263 43.445 76.6263 43.885V48.351H83.7323V43.885C83.7323 43.445 83.6883 43.1224 83.6003 42.917C83.5123 42.697 83.3437 42.543 83.0943 42.455C82.845 42.367 82.449 42.323 81.9063 42.323C81.8623 42.323 81.8403 42.279 81.8403 42.191C81.8403 42.103 81.8623 42.059 81.9063 42.059L82.9843 42.081C83.7177 42.1104 84.3777 42.125 84.9643 42.125C85.3604 42.125 85.925 42.1104 86.6583 42.081L87.8903 42.059C87.9343 42.059 87.9563 42.103 87.9563 42.191C87.9563 42.279 87.9343 42.323 87.8903 42.323C87.3917 42.323 87.0177 42.367 86.7683 42.455C86.5337 42.5284 86.3723 42.6677 86.2843 42.873C86.211 43.0784 86.1743 43.401 86.1743 43.841V54.027C86.1743 54.467 86.211 54.797 86.2843 55.017C86.3723 55.2224 86.5337 55.3617 86.7683 55.435C87.003 55.5084 87.377 55.545 87.8903 55.545Z" />
<path d="M96.6391 56.073C95.2751 56.073 94.0578 55.7577 92.9871 55.127C91.9311 54.4817 91.1098 53.6164 90.5231 52.531C89.9511 51.431 89.6651 50.2357 89.6651 48.945C89.6651 47.4344 90.0465 46.1437 90.8091 45.073C91.5718 43.9877 92.5471 43.1737 93.7351 42.631C94.9378 42.0884 96.1625 41.817 97.4091 41.817C98.8025 41.817 100.027 42.147 101.083 42.807C102.139 43.4524 102.946 44.3104 103.503 45.381C104.075 46.4517 104.361 47.5884 104.361 48.791C104.361 50.1257 104.009 51.3504 103.305 52.465C102.601 53.5797 101.655 54.4597 100.467 55.105C99.2938 55.7504 98.0178 56.073 96.6391 56.073ZM97.3651 55.523C98.1865 55.523 98.9198 55.2884 99.5651 54.819C100.225 54.335 100.738 53.6384 101.105 52.729C101.472 51.805 101.655 50.705 101.655 49.429C101.655 48.0797 101.45 46.877 101.039 45.821C100.628 44.7504 100.034 43.9144 99.2571 43.313C98.4798 42.7117 97.5705 42.411 96.5291 42.411C95.1945 42.411 94.1678 42.917 93.4491 43.929C92.7305 44.9264 92.3711 46.327 92.3711 48.131C92.3711 49.5537 92.5838 50.8297 93.0091 51.959C93.4491 53.0737 94.0431 53.9464 94.7911 54.577C95.5538 55.2077 96.4118 55.523 97.3651 55.523Z" />
<path d="M114.429 56.073C112.816 56.073 111.408 55.765 110.205 55.149C109.002 54.533 108.086 53.697 107.455 52.641C106.824 51.5704 106.509 50.3824 106.509 49.077C106.509 47.669 106.868 46.415 107.587 45.315C108.32 44.2004 109.318 43.3424 110.579 42.741C111.855 42.125 113.278 41.817 114.847 41.817C115.536 41.817 116.233 41.8757 116.937 41.993C117.641 42.0957 118.206 42.235 118.631 42.411C118.763 42.455 118.844 42.5137 118.873 42.587C118.917 42.6457 118.946 42.7557 118.961 42.917L119.247 45.975C119.247 46.019 119.21 46.0484 119.137 46.063C119.064 46.0777 119.012 46.0557 118.983 45.997C118.47 44.8677 117.758 43.9877 116.849 43.357C115.954 42.7264 114.928 42.411 113.769 42.411C112.273 42.411 111.129 42.9317 110.337 43.973C109.56 45.0144 109.171 46.437 109.171 48.241C109.171 49.693 109.42 50.991 109.919 52.135C110.418 53.2644 111.107 54.1444 111.987 54.775C112.882 55.391 113.879 55.699 114.979 55.699C115.58 55.699 116.042 55.633 116.365 55.501C116.688 55.369 116.922 55.1124 117.069 54.731C117.216 54.3497 117.289 53.785 117.289 53.037C117.289 52.2744 117.245 51.7464 117.157 51.453C117.069 51.145 116.878 50.9397 116.585 50.837C116.306 50.7344 115.815 50.683 115.111 50.683C115.023 50.683 114.979 50.6244 114.979 50.507C114.979 50.463 114.986 50.4264 115.001 50.397C115.03 50.353 115.06 50.331 115.089 50.331C116.336 50.4044 117.34 50.441 118.103 50.441C118.851 50.441 119.628 50.419 120.435 50.375C120.464 50.375 120.486 50.397 120.501 50.441C120.53 50.4704 120.545 50.4997 120.545 50.529C120.545 50.6317 120.508 50.683 120.435 50.683C120.171 50.6684 119.988 50.7197 119.885 50.837C119.782 50.9397 119.716 51.1597 119.687 51.497C119.658 51.8197 119.643 52.4064 119.643 53.257C119.643 53.917 119.665 54.3864 119.709 54.665C119.768 54.9437 119.797 55.1197 119.797 55.193C119.797 55.281 119.775 55.3397 119.731 55.369C119.702 55.3984 119.636 55.4277 119.533 55.457C117.641 55.8677 115.94 56.073 114.429 56.073Z" />
<path d="M86.1031 17.9983H117.384V19.3016H86.1031V17.9983Z" />
<path d="M1.384 17.9983H31.3615V19.3016H1.384V17.9983Z" />
</svg>
