<svg width="117" height="55" viewBox="0 0 117 55" fill="none" xmlns="http://www.w3.org/2000/svg">
<mask id="path-1-inside-1" fill="white">
<path d="M67.1029 21.8108C67.1029 22.235 67.4432 22.5789 67.8629 22.5789H69.257C69.6767 22.5789 70.017 22.235 70.017 21.8108C70.017 21.3867 69.6767 21.0428 69.257 21.0428H67.8629C67.4432 21.0428 67.1029 21.3867 67.1029 21.8108Z"/>
<path d="M77.0555 25.9739C76.8991 25.9739 76.746 25.988 76.5967 26.0137L71.5876 17.6152C71.6077 17.5905 71.627 17.5646 71.6443 17.5369L75.0081 12.1378C75.1476 11.914 75.1632 11.6333 75.0496 11.3951C74.936 11.1568 74.709 10.9943 74.4489 10.9651L68.9302 10.3458L69.5568 4.77066C69.5863 4.50808 69.4803 4.24857 69.2757 4.08367C69.0715 3.91886 68.7975 3.87169 68.5506 3.95907L63.3098 5.81312L61.4798 0.514987C61.3935 0.265238 61.1863 0.077926 60.9311 0.0191934C60.6761 -0.0393585 60.4087 0.0385302 60.224 0.225842L56.3032 4.20023L52.3824 0.225842C52.1976 0.0385302 51.9304 -0.0395392 51.6754 0.0191934C51.4202 0.077926 51.2129 0.265328 51.1266 0.514897L49.2967 5.81303L44.0558 3.95907C43.8088 3.87178 43.535 3.91877 43.3306 4.08367C43.1262 4.24848 43.02 4.50799 43.0495 4.77066L43.6761 10.3458L38.1575 10.9652C37.8973 10.9944 37.6704 11.1569 37.5567 11.3952C37.4431 11.6334 37.4587 11.914 37.5982 12.1379L40.5566 16.8862L35.8552 19.8699C35.6338 20.0104 35.4994 20.2561 35.4994 20.5203C35.4994 20.7845 35.6338 21.0301 35.8552 21.1707L40.5567 24.1545L37.5983 28.9028C37.4509 29.1394 37.4424 29.4382 37.5759 29.6829C37.7094 29.9276 37.964 30.0798 38.2406 30.0802L74.7147 30.1216C75.1891 30.9295 76.0606 31.4725 77.0556 31.4725C78.5556 31.4725 79.7761 30.2392 79.7761 28.7232C79.7759 27.2071 78.5555 25.9739 77.0555 25.9739ZM74.3385 28.5851L60.7878 28.5697C58.9935 22.4277 63.437 17.651 68.6207 15.6166L75.2255 26.6905C74.7102 27.1648 74.3754 27.8359 74.3385 28.5851ZM42.2483 24.3223C42.3558 24.1498 42.391 23.9412 42.3462 23.7424C42.3013 23.5437 42.1803 23.3711 42.0094 23.2626L37.6885 20.5202L42.0094 17.7779C42.1803 17.6694 42.3014 17.4968 42.3462 17.2981C42.3911 17.0993 42.3558 16.8906 42.2483 16.7181L39.5308 12.3565L44.6011 11.7874C44.8018 11.7649 44.9853 11.6625 45.1113 11.5031C45.2373 11.3437 45.2952 11.1401 45.2724 10.9374L44.6965 5.81303L49.5123 7.51673C49.7026 7.58404 49.9116 7.57203 50.0934 7.48375C50.2751 7.3952 50.4145 7.23734 50.481 7.04506L52.1621 2.17811L55.765 5.83029C55.9076 5.97486 56.1012 6.05609 56.3032 6.05609C56.5052 6.05609 56.6989 5.97486 56.8415 5.83029L60.4444 2.17811L62.1254 7.04506C62.1919 7.23752 62.3314 7.39538 62.513 7.48384C62.6946 7.5723 62.9038 7.58422 63.0941 7.51682L67.91 5.81312L67.3341 10.9375C67.3113 11.1402 67.3693 11.3437 67.4952 11.5032C67.6211 11.6628 67.8047 11.765 68.0053 11.7875L73.0757 12.3565L70.713 16.1485L69.5989 14.2806C69.4135 13.9699 69.0382 13.8328 68.6993 13.9513C65.2141 15.1709 62.3513 17.3009 60.6386 19.9491C58.9329 22.5865 58.447 25.547 59.2108 28.5677L39.6173 28.5454L42.2483 24.3223ZM77.0555 29.9363C76.3936 29.9363 75.855 29.3921 75.855 28.7231C75.855 28.0541 76.3936 27.5098 77.0555 27.5098C77.7174 27.5098 78.256 28.0541 78.256 28.7231C78.256 29.3921 77.7174 29.9363 77.0555 29.9363Z"/>
<path d="M15.0325 54.4821C15.0752 54.4821 15.0966 54.5253 15.0966 54.6116C15.0966 54.6979 15.0752 54.7411 15.0325 54.7411C14.5343 54.7411 14.1357 54.7339 13.8368 54.7195L12.1926 54.6979L10.2708 54.7195C10.0146 54.7339 9.66581 54.7411 9.22451 54.7411C9.18181 54.7411 9.16046 54.6979 9.16046 54.6116C9.16046 54.5253 9.18181 54.4821 9.22451 54.4821C9.75122 54.4821 10.1356 54.4461 10.3776 54.3742C10.6196 54.3023 10.7833 54.1656 10.8687 53.9642C10.9541 53.7628 10.9968 53.4391 10.9968 52.9932V48.03H4.09978V52.9932C4.09978 53.4247 4.14249 53.7484 4.2279 53.9642C4.31332 54.1656 4.47702 54.3023 4.71902 54.3742C4.96102 54.4461 5.34538 54.4821 5.87209 54.4821C5.90056 54.4821 5.91479 54.5253 5.91479 54.6116C5.91479 54.6979 5.90056 54.7411 5.87209 54.7411C5.37385 54.7411 4.97526 54.7339 4.67632 54.7195L2.8186 54.6979L1.21712 54.7195C0.932416 54.7339 0.540944 54.7411 0.0427061 54.7411C0.0142354 54.7411 0 54.6979 0 54.6116C0 54.5253 0.0142354 54.4821 0.0427061 54.4821C0.540944 54.4821 0.903946 54.4461 1.13171 54.3742C1.35948 54.3023 1.51607 54.1656 1.60148 53.9642C1.68689 53.7484 1.7296 53.4247 1.7296 52.9932V43.0021C1.7296 42.5705 1.68689 42.254 1.60148 42.0526C1.51607 41.8512 1.35948 41.7145 1.13171 41.6426C0.918181 41.5563 0.569414 41.5131 0.0854122 41.5131C0.0427061 41.5131 0.021353 41.47 0.021353 41.3836C0.021353 41.2973 0.0427061 41.2542 0.0854122 41.2542L1.23848 41.2758C1.8933 41.3045 2.42001 41.3189 2.8186 41.3189C3.35955 41.3189 3.9859 41.3045 4.69767 41.2758L5.87209 41.2542C5.90056 41.2542 5.91479 41.2973 5.91479 41.3836C5.91479 41.47 5.90056 41.5131 5.87209 41.5131C5.35961 41.5131 4.98238 41.5563 4.74038 41.6426C4.49837 41.7289 4.32755 41.88 4.2279 42.0958C4.14249 42.2972 4.09978 42.6137 4.09978 43.0452V47.4258H10.9968V43.0452C10.9968 42.6137 10.9541 42.2972 10.8687 42.0958C10.7833 41.88 10.6196 41.7289 10.3776 41.6426C10.1356 41.5563 9.75122 41.5131 9.22451 41.5131C9.18181 41.5131 9.16046 41.47 9.16046 41.3836C9.16046 41.2973 9.18181 41.2542 9.22451 41.2542L10.2708 41.2758C10.9826 41.3045 11.6232 41.3189 12.1926 41.3189C12.5769 41.3189 13.125 41.3045 13.8368 41.2758L15.0325 41.2542C15.0752 41.2542 15.0966 41.2973 15.0966 41.3836C15.0966 41.47 15.0752 41.5131 15.0325 41.5131C14.5485 41.5131 14.1855 41.5563 13.9435 41.6426C13.7158 41.7145 13.5592 41.8512 13.4738 42.0526C13.4026 42.254 13.367 42.5705 13.367 43.0021V52.9932C13.367 53.4247 13.4026 53.7484 13.4738 53.9642C13.5592 54.1656 13.7158 54.3023 13.9435 54.3742C14.1713 54.4461 14.5343 54.4821 15.0325 54.4821Z"/>
<path d="M26.2999 51.31C26.2999 51.2812 26.3284 51.2668 26.3854 51.2668C26.4281 51.2668 26.4636 51.2812 26.4921 51.31C26.5348 51.3244 26.5562 51.3388 26.5562 51.3531C26.4138 52.4753 26.3426 53.4967 26.3426 54.4174C26.3426 54.5325 26.3213 54.6188 26.2786 54.6763C26.2359 54.7195 26.1505 54.7411 26.0224 54.7411H16.5843C16.5416 54.7411 16.5202 54.6979 16.5202 54.6116C16.5202 54.5253 16.5416 54.4821 16.5843 54.4821C17.0398 54.4821 17.3673 54.4461 17.5665 54.3742C17.7801 54.3023 17.9224 54.1656 17.9936 53.9642C18.0648 53.7484 18.1004 53.4247 18.1004 52.9932V43.0021C18.1004 42.5705 18.0648 42.254 17.9936 42.0526C17.9224 41.8512 17.7801 41.7145 17.5665 41.6426C17.353 41.5563 17.0256 41.5131 16.5843 41.5131C16.5416 41.5131 16.5202 41.47 16.5202 41.3836C16.5202 41.2973 16.5416 41.2542 16.5843 41.2542H25.638C25.7804 41.2542 25.8515 41.3189 25.8515 41.4484L25.8942 44.3184C25.8942 44.3472 25.8515 44.3687 25.7661 44.3831C25.6949 44.3975 25.6522 44.3831 25.638 44.34C25.4102 43.5056 25.0259 42.887 24.4849 42.4842C23.944 42.0814 23.2322 41.88 22.3496 41.88H21.709C21.282 41.88 20.9688 41.9735 20.7695 42.1605C20.5702 42.3475 20.4706 42.6352 20.4706 43.0237V47.4258H22.2429C23.0685 47.4258 23.702 47.2819 24.1433 46.9942C24.5846 46.7065 24.8052 46.3037 24.8052 45.7858C24.8052 45.7426 24.8408 45.721 24.912 45.721C24.9974 45.721 25.0401 45.7426 25.0401 45.7858L25.0188 47.7279L25.0401 48.7637C25.0686 49.2528 25.0828 49.6412 25.0828 49.9289C25.0828 49.9577 25.0401 49.9721 24.9547 49.9721C24.8693 49.9721 24.8266 49.9577 24.8266 49.9289C24.8266 49.3391 24.5988 48.8788 24.1433 48.5479C23.702 48.2026 23.0614 48.03 22.2215 48.03H20.4706V52.9068C20.4706 53.324 20.5489 53.6333 20.7054 53.8347C20.862 54.0361 21.1112 54.1368 21.4528 54.1368H22.1575C23.2678 54.1368 24.1575 53.9067 24.8266 53.4463C25.4956 52.986 25.9868 52.2739 26.2999 51.31Z"/>
<path d="M34.4516 54.8274C33.9961 54.8274 33.4552 54.8058 32.8288 54.7626C32.601 54.7482 32.3163 54.7339 31.9747 54.7195C31.6473 54.7051 31.2771 54.6979 30.8643 54.6979L29.2842 54.7195C28.9995 54.7339 28.6151 54.7411 28.1311 54.7411C28.1027 54.7411 28.0884 54.6979 28.0884 54.6116C28.0884 54.5253 28.1027 54.4821 28.1311 54.4821C28.5867 54.4821 28.9212 54.4461 29.1347 54.3742C29.3483 54.3023 29.4906 54.1656 29.5618 53.9642C29.6472 53.7484 29.6899 53.4247 29.6899 52.9932V43.0021C29.6899 42.5705 29.6472 42.254 29.5618 42.0526C29.4906 41.8512 29.3483 41.7145 29.1347 41.6426C28.9354 41.5563 28.6151 41.5131 28.1738 41.5131C28.1311 41.5131 28.1098 41.47 28.1098 41.3836C28.1098 41.2973 28.1311 41.2542 28.1738 41.2542L29.3056 41.2758C29.9604 41.3045 30.48 41.3189 30.8643 41.3189C31.448 41.3189 32.0459 41.2973 32.658 41.2542C33.3982 41.2254 33.8965 41.211 34.1527 41.211C35.5905 41.211 36.8645 41.4987 37.9749 42.0742C39.0995 42.6496 39.9678 43.4337 40.58 44.4263C41.1921 45.4189 41.4981 46.5338 41.4981 47.771C41.4981 49.1665 41.1778 50.4037 40.5373 51.4826C39.9109 52.5472 39.0568 53.3744 37.9749 53.9642C36.9072 54.5396 35.7328 54.8274 34.4516 54.8274ZM34.2381 54.3311C35.1492 54.3311 35.9535 54.1009 36.651 53.6405C37.3485 53.1658 37.8895 52.4681 38.2738 51.5474C38.6724 50.6267 38.8717 49.5261 38.8717 48.2458C38.8717 47.023 38.6867 45.9152 38.3165 44.9226C37.9464 43.9156 37.4197 43.1244 36.7364 42.5489C36.0531 41.9735 35.2631 41.6858 34.3662 41.6858C33.4836 41.6858 32.8786 41.7721 32.5512 41.9447C32.2238 42.1173 32.0601 42.4842 32.0601 43.0452V52.7558C32.0601 53.3312 32.2096 53.7412 32.5085 53.9858C32.8075 54.216 33.384 54.3311 34.2381 54.3311Z"/>
<path d="M51.2795 55C49.7136 55 48.347 54.6979 47.1797 54.0937C46.0124 53.4895 45.1227 52.6695 44.5106 51.6337C43.8985 50.5835 43.5924 49.4182 43.5924 48.1379C43.5924 46.7568 43.9412 45.5268 44.6387 44.4479C45.3505 43.3545 46.3185 42.5129 47.5427 41.9231C48.7812 41.3189 50.162 41.0168 51.6852 41.0168C52.3543 41.0168 53.0305 41.0743 53.7137 41.1894C54.397 41.2901 54.9451 41.4268 55.3579 41.5994C55.4861 41.6426 55.5643 41.7001 55.5928 41.7721C55.6355 41.8296 55.664 41.9375 55.6782 42.0958L55.9558 45.0952C55.9558 45.1384 55.9202 45.1672 55.8491 45.1815C55.7779 45.1959 55.7281 45.1744 55.6996 45.1168C55.2013 44.0091 54.5109 43.1459 53.6283 42.5273C52.76 41.9087 51.7635 41.5994 50.6389 41.5994C49.1869 41.5994 48.0765 42.1101 47.3078 43.1315C46.5534 44.153 46.1761 45.5484 46.1761 47.3179C46.1761 48.7421 46.4181 50.0153 46.9021 51.1374C47.3861 52.2451 48.0552 53.1082 48.9093 53.7268C49.7777 54.3311 50.7457 54.6332 51.8133 54.6332C52.397 54.6332 52.8454 54.5684 53.1586 54.4389C53.4717 54.3095 53.6995 54.0577 53.8419 53.6837C53.9842 53.3096 54.0554 52.7558 54.0554 52.0221C54.0554 51.274 54.0127 50.7561 53.9273 50.4684C53.8419 50.1663 53.6568 49.9649 53.3721 49.8642C53.1016 49.7635 52.6247 49.7131 51.9414 49.7131C51.856 49.7131 51.8133 49.6556 51.8133 49.5405C51.8133 49.4974 51.8204 49.4614 51.8347 49.4326C51.8632 49.3895 51.8916 49.3679 51.9201 49.3679C53.1301 49.4398 54.1052 49.4758 54.8455 49.4758C55.5715 49.4758 56.3259 49.4542 57.1089 49.411C57.1374 49.411 57.1587 49.4326 57.1729 49.4758C57.2014 49.5045 57.2156 49.5333 57.2156 49.5621C57.2156 49.6628 57.1801 49.7131 57.1089 49.7131C56.8526 49.6988 56.6747 49.7491 56.5751 49.8642C56.4754 49.9649 56.4114 50.1807 56.3829 50.5116C56.3544 50.8281 56.3402 51.4035 56.3402 52.2379C56.3402 52.8853 56.3615 53.3456 56.4042 53.6189C56.4612 53.8923 56.4896 54.0649 56.4896 54.1368C56.4896 54.2232 56.4683 54.2807 56.4256 54.3095C56.3971 54.3382 56.3331 54.367 56.2334 54.3958C54.397 54.7986 52.7457 55 51.2795 55Z"/>
<path d="M68.4847 51.31C68.4847 51.2812 68.5132 51.2668 68.5701 51.2668C68.6128 51.2668 68.6484 51.2812 68.6769 51.31C68.7196 51.3244 68.741 51.3388 68.741 51.3531C68.5986 52.4753 68.5274 53.4967 68.5274 54.4174C68.5274 54.5325 68.5061 54.6188 68.4634 54.6763C68.4207 54.7195 68.3353 54.7411 68.2071 54.7411H58.7691C58.7264 54.7411 58.705 54.6979 58.705 54.6116C58.705 54.5253 58.7264 54.4821 58.7691 54.4821C59.2246 54.4821 59.552 54.4461 59.7513 54.3742C59.9649 54.3023 60.1072 54.1656 60.1784 53.9642C60.2496 53.7484 60.2851 53.4247 60.2851 52.9932V43.0021C60.2851 42.5705 60.2496 42.254 60.1784 42.0526C60.1072 41.8512 59.9649 41.7145 59.7513 41.6426C59.5378 41.5563 59.2104 41.5131 58.7691 41.5131C58.7264 41.5131 58.705 41.47 58.705 41.3836C58.705 41.2973 58.7264 41.2542 58.7691 41.2542H67.8228C67.9651 41.2542 68.0363 41.3189 68.0363 41.4484L68.079 44.3184C68.079 44.3472 68.0363 44.3687 67.9509 44.3831C67.8797 44.3975 67.837 44.3831 67.8228 44.34C67.595 43.5056 67.2107 42.887 66.6697 42.4842C66.1288 42.0814 65.417 41.88 64.5344 41.88H63.8938C63.4668 41.88 63.1536 41.9735 62.9543 42.1605C62.755 42.3475 62.6553 42.6352 62.6553 43.0237V47.4258H64.4276C65.2533 47.4258 65.8868 47.2819 66.3281 46.9942C66.7694 46.7065 66.99 46.3037 66.99 45.7858C66.99 45.7426 67.0256 45.721 67.0968 45.721C67.1822 45.721 67.2249 45.7426 67.2249 45.7858L67.2035 47.7279L67.2249 48.7637C67.2534 49.2528 67.2676 49.6412 67.2676 49.9289C67.2676 49.9577 67.2249 49.9721 67.1395 49.9721C67.0541 49.9721 67.0114 49.9577 67.0114 49.9289C67.0114 49.3391 66.7836 48.8788 66.3281 48.5479C65.8868 48.2026 65.2462 48.03 64.4063 48.03H62.6553V52.9068C62.6553 53.324 62.7336 53.6333 62.8902 53.8347C63.0468 54.0361 63.2959 54.1368 63.6376 54.1368H64.3422C65.4526 54.1368 66.3423 53.9067 67.0114 53.4463C67.6804 52.986 68.1715 52.2739 68.4847 51.31Z"/>
<path d="M85.3057 54.4821C85.3484 54.4821 85.3698 54.5253 85.3698 54.6116C85.3698 54.6979 85.3484 54.7411 85.3057 54.7411C84.8075 54.7411 84.4089 54.7339 84.11 54.7195L82.4658 54.6979L80.544 54.7195C80.2878 54.7339 79.939 54.7411 79.4977 54.7411C79.455 54.7411 79.4337 54.6979 79.4337 54.6116C79.4337 54.5253 79.455 54.4821 79.4977 54.4821C80.0244 54.4821 80.4088 54.4461 80.6508 54.3742C80.8928 54.3023 81.0565 54.1656 81.1419 53.9642C81.2273 53.7628 81.27 53.4391 81.27 52.9932V48.03H74.373V52.9932C74.373 53.4247 74.4157 53.7484 74.5011 53.9642C74.5865 54.1656 74.7502 54.3023 74.9922 54.3742C75.2342 54.4461 75.6186 54.4821 76.1453 54.4821C76.1738 54.4821 76.188 54.5253 76.188 54.6116C76.188 54.6979 76.1738 54.7411 76.1453 54.7411C75.6471 54.7411 75.2485 54.7339 74.9495 54.7195L73.0918 54.6979L71.4903 54.7195C71.2056 54.7339 70.8141 54.7411 70.3159 54.7411C70.2874 54.7411 70.2732 54.6979 70.2732 54.6116C70.2732 54.5253 70.2874 54.4821 70.3159 54.4821C70.8141 54.4821 71.1771 54.4461 71.4049 54.3742C71.6327 54.3023 71.7893 54.1656 71.8747 53.9642C71.9601 53.7484 72.0028 53.4247 72.0028 52.9932V43.0021C72.0028 42.5705 71.9601 42.254 71.8747 42.0526C71.7893 41.8512 71.6327 41.7145 71.4049 41.6426C71.1914 41.5563 70.8426 41.5131 70.3586 41.5131C70.3159 41.5131 70.2946 41.47 70.2946 41.3836C70.2946 41.2973 70.3159 41.2542 70.3586 41.2542L71.5117 41.2758C72.1665 41.3045 72.6932 41.3189 73.0918 41.3189C73.6327 41.3189 74.2591 41.3045 74.9709 41.2758L76.1453 41.2542C76.1738 41.2542 76.188 41.2973 76.188 41.3836C76.188 41.47 76.1738 41.5131 76.1453 41.5131C75.6328 41.5131 75.2556 41.5563 75.0136 41.6426C74.7716 41.7289 74.6008 41.88 74.5011 42.0958C74.4157 42.2972 74.373 42.6137 74.373 43.0452V47.4258H81.27V43.0452C81.27 42.6137 81.2273 42.2972 81.1419 42.0958C81.0565 41.88 80.8928 41.7289 80.6508 41.6426C80.4088 41.5563 80.0244 41.5131 79.4977 41.5131C79.455 41.5131 79.4337 41.47 79.4337 41.3836C79.4337 41.2973 79.455 41.2542 79.4977 41.2542L80.544 41.2758C81.2558 41.3045 81.8964 41.3189 82.4658 41.3189C82.8502 41.3189 83.3982 41.3045 84.11 41.2758L85.3057 41.2542C85.3484 41.2542 85.3698 41.2973 85.3698 41.3836C85.3698 41.47 85.3484 41.5131 85.3057 41.5131C84.8217 41.5131 84.4587 41.5563 84.2167 41.6426C83.989 41.7145 83.8324 41.8512 83.747 42.0526C83.6758 42.254 83.6402 42.5705 83.6402 43.0021V52.9932C83.6402 53.4247 83.6758 53.7484 83.747 53.9642C83.8324 54.1656 83.989 54.3023 84.2167 54.3742C84.4445 54.4461 84.8075 54.4821 85.3057 54.4821Z"/>
<path d="M93.7972 55C92.4734 55 91.2918 54.6907 90.2526 54.0721C89.2277 53.4391 88.4305 52.5903 87.8611 51.5258C87.3059 50.4468 87.0283 49.2744 87.0283 48.0084C87.0283 46.5266 87.3985 45.2607 88.1387 44.2105C88.8789 43.1459 89.8256 42.3475 90.9786 41.8152C92.1459 41.2829 93.3346 41.0168 94.5446 41.0168C95.897 41.0168 97.0856 41.3405 98.1106 41.9879C99.1355 42.6208 99.9185 43.4624 100.459 44.5126C101.015 45.5628 101.292 46.6777 101.292 47.8573C101.292 49.1665 100.951 50.3677 100.267 51.461C99.5839 52.5544 98.6657 53.4175 97.5127 54.0505C96.3738 54.6835 95.1354 55 93.7972 55ZM94.5019 54.4605C95.2991 54.4605 96.0108 54.2303 96.6372 53.77C97.2778 53.2953 97.776 52.6119 98.1319 51.72C98.4878 50.8137 98.6657 49.7347 98.6657 48.4831C98.6657 47.1596 98.4664 45.98 98.0679 44.9442C97.6693 43.894 97.0927 43.074 96.3383 42.4842C95.5838 41.8943 94.7012 41.5994 93.6905 41.5994C92.3951 41.5994 91.3986 42.0958 90.7011 43.0884C90.0035 44.0666 89.6548 45.4405 89.6548 47.21C89.6548 48.6054 89.8612 49.857 90.274 50.9647C90.7011 52.0581 91.2776 52.914 92.0036 53.5326C92.7438 54.1512 93.5766 54.4605 94.5019 54.4605Z"/>
<path d="M111.064 55C109.498 55 108.131 54.6979 106.964 54.0937C105.797 53.4895 104.907 52.6695 104.295 51.6337C103.683 50.5835 103.377 49.4182 103.377 48.1379C103.377 46.7568 103.726 45.5268 104.423 44.4479C105.135 43.3545 106.103 42.5129 107.327 41.9231C108.566 41.3189 109.946 41.0168 111.47 41.0168C112.139 41.0168 112.815 41.0743 113.498 41.1894C114.181 41.2901 114.729 41.4268 115.142 41.5994C115.27 41.6426 115.349 41.7001 115.377 41.7721C115.42 41.8296 115.448 41.9375 115.463 42.0958L115.74 45.0952C115.74 45.1384 115.705 45.1672 115.633 45.1815C115.562 45.1959 115.512 45.1744 115.484 45.1168C114.986 44.0091 114.295 43.1459 113.413 42.5273C112.544 41.9087 111.548 41.5994 110.423 41.5994C108.971 41.5994 107.861 42.1101 107.092 43.1315C106.338 44.153 105.96 45.5484 105.96 47.3179C105.96 48.7421 106.202 50.0153 106.686 51.1374C107.17 52.2451 107.84 53.1082 108.694 53.7268C109.562 54.3311 110.53 54.6332 111.598 54.6332C112.181 54.6332 112.63 54.5684 112.943 54.4389C113.256 54.3095 113.484 54.0577 113.626 53.6837C113.769 53.3096 113.84 52.7558 113.84 52.0221C113.84 51.274 113.797 50.7561 113.712 50.4684C113.626 50.1663 113.441 49.9649 113.156 49.8642C112.886 49.7635 112.409 49.7131 111.726 49.7131C111.64 49.7131 111.598 49.6556 111.598 49.5405C111.598 49.4974 111.605 49.4614 111.619 49.4326C111.648 49.3895 111.676 49.3679 111.704 49.3679C112.914 49.4398 113.89 49.4758 114.63 49.4758C115.356 49.4758 116.11 49.4542 116.893 49.411C116.922 49.411 116.943 49.4326 116.957 49.4758C116.986 49.5045 117 49.5333 117 49.5621C117 49.6628 116.964 49.7131 116.893 49.7131C116.637 49.6988 116.459 49.7491 116.359 49.8642C116.26 49.9649 116.196 50.1807 116.167 50.5116C116.139 50.8281 116.125 51.4035 116.125 52.2379C116.125 52.8853 116.146 53.3456 116.189 53.6189C116.246 53.8923 116.274 54.0649 116.274 54.1368C116.274 54.2232 116.253 54.2807 116.21 54.3095C116.181 54.3382 116.117 54.367 116.018 54.3958C114.181 54.7986 112.53 55 111.064 55Z"/>
<path d="M83.5711 17.6539H113.932V18.9323H83.5711V17.6539Z"/>
<path d="M1.3433 17.6539H30.4393V18.9323H1.3433V17.6539Z"/>
</mask>
<path d="M67.1029 21.8108C67.1029 22.235 67.4432 22.5789 67.8629 22.5789H69.257C69.6767 22.5789 70.017 22.235 70.017 21.8108C70.017 21.3867 69.6767 21.0428 69.257 21.0428H67.8629C67.4432 21.0428 67.1029 21.3867 67.1029 21.8108Z" fill="#195557"/>
<path d="M77.0555 25.9739C76.8991 25.9739 76.746 25.988 76.5967 26.0137L71.5876 17.6152C71.6077 17.5905 71.627 17.5646 71.6443 17.5369L75.0081 12.1378C75.1476 11.914 75.1632 11.6333 75.0496 11.3951C74.936 11.1568 74.709 10.9943 74.4489 10.9651L68.9302 10.3458L69.5568 4.77066C69.5863 4.50808 69.4803 4.24857 69.2757 4.08367C69.0715 3.91886 68.7975 3.87169 68.5506 3.95907L63.3098 5.81312L61.4798 0.514987C61.3935 0.265238 61.1863 0.077926 60.9311 0.0191934C60.6761 -0.0393585 60.4087 0.0385302 60.224 0.225842L56.3032 4.20023L52.3824 0.225842C52.1976 0.0385302 51.9304 -0.0395392 51.6754 0.0191934C51.4202 0.077926 51.2129 0.265328 51.1266 0.514897L49.2967 5.81303L44.0558 3.95907C43.8088 3.87178 43.535 3.91877 43.3306 4.08367C43.1262 4.24848 43.02 4.50799 43.0495 4.77066L43.6761 10.3458L38.1575 10.9652C37.8973 10.9944 37.6704 11.1569 37.5567 11.3952C37.4431 11.6334 37.4587 11.914 37.5982 12.1379L40.5566 16.8862L35.8552 19.8699C35.6338 20.0104 35.4994 20.2561 35.4994 20.5203C35.4994 20.7845 35.6338 21.0301 35.8552 21.1707L40.5567 24.1545L37.5983 28.9028C37.4509 29.1394 37.4424 29.4382 37.5759 29.6829C37.7094 29.9276 37.964 30.0798 38.2406 30.0802L74.7147 30.1216C75.1891 30.9295 76.0606 31.4725 77.0556 31.4725C78.5556 31.4725 79.7761 30.2392 79.7761 28.7232C79.7759 27.2071 78.5555 25.9739 77.0555 25.9739ZM74.3385 28.5851L60.7878 28.5697C58.9935 22.4277 63.437 17.651 68.6207 15.6166L75.2255 26.6905C74.7102 27.1648 74.3754 27.8359 74.3385 28.5851ZM42.2483 24.3223C42.3558 24.1498 42.391 23.9412 42.3462 23.7424C42.3013 23.5437 42.1803 23.3711 42.0094 23.2626L37.6885 20.5202L42.0094 17.7779C42.1803 17.6694 42.3014 17.4968 42.3462 17.2981C42.3911 17.0993 42.3558 16.8906 42.2483 16.7181L39.5308 12.3565L44.6011 11.7874C44.8018 11.7649 44.9853 11.6625 45.1113 11.5031C45.2373 11.3437 45.2952 11.1401 45.2724 10.9374L44.6965 5.81303L49.5123 7.51673C49.7026 7.58404 49.9116 7.57203 50.0934 7.48375C50.2751 7.3952 50.4145 7.23734 50.481 7.04506L52.1621 2.17811L55.765 5.83029C55.9076 5.97486 56.1012 6.05609 56.3032 6.05609C56.5052 6.05609 56.6989 5.97486 56.8415 5.83029L60.4444 2.17811L62.1254 7.04506C62.1919 7.23752 62.3314 7.39538 62.513 7.48384C62.6946 7.5723 62.9038 7.58422 63.0941 7.51682L67.91 5.81312L67.3341 10.9375C67.3113 11.1402 67.3693 11.3437 67.4952 11.5032C67.6211 11.6628 67.8047 11.765 68.0053 11.7875L73.0757 12.3565L70.713 16.1485L69.5989 14.2806C69.4135 13.9699 69.0382 13.8328 68.6993 13.9513C65.2141 15.1709 62.3513 17.3009 60.6386 19.9491C58.9329 22.5865 58.447 25.547 59.2108 28.5677L39.6173 28.5454L42.2483 24.3223ZM77.0555 29.9363C76.3936 29.9363 75.855 29.3921 75.855 28.7231C75.855 28.0541 76.3936 27.5098 77.0555 27.5098C77.7174 27.5098 78.256 28.0541 78.256 28.7231C78.256 29.3921 77.7174 29.9363 77.0555 29.9363Z" fill="#195557"/>
<path d="M15.0325 54.4821C15.0752 54.4821 15.0966 54.5253 15.0966 54.6116C15.0966 54.6979 15.0752 54.7411 15.0325 54.7411C14.5343 54.7411 14.1357 54.7339 13.8368 54.7195L12.1926 54.6979L10.2708 54.7195C10.0146 54.7339 9.66581 54.7411 9.22451 54.7411C9.18181 54.7411 9.16046 54.6979 9.16046 54.6116C9.16046 54.5253 9.18181 54.4821 9.22451 54.4821C9.75122 54.4821 10.1356 54.4461 10.3776 54.3742C10.6196 54.3023 10.7833 54.1656 10.8687 53.9642C10.9541 53.7628 10.9968 53.4391 10.9968 52.9932V48.03H4.09978V52.9932C4.09978 53.4247 4.14249 53.7484 4.2279 53.9642C4.31332 54.1656 4.47702 54.3023 4.71902 54.3742C4.96102 54.4461 5.34538 54.4821 5.87209 54.4821C5.90056 54.4821 5.91479 54.5253 5.91479 54.6116C5.91479 54.6979 5.90056 54.7411 5.87209 54.7411C5.37385 54.7411 4.97526 54.7339 4.67632 54.7195L2.8186 54.6979L1.21712 54.7195C0.932416 54.7339 0.540944 54.7411 0.0427061 54.7411C0.0142354 54.7411 0 54.6979 0 54.6116C0 54.5253 0.0142354 54.4821 0.0427061 54.4821C0.540944 54.4821 0.903946 54.4461 1.13171 54.3742C1.35948 54.3023 1.51607 54.1656 1.60148 53.9642C1.68689 53.7484 1.7296 53.4247 1.7296 52.9932V43.0021C1.7296 42.5705 1.68689 42.254 1.60148 42.0526C1.51607 41.8512 1.35948 41.7145 1.13171 41.6426C0.918181 41.5563 0.569414 41.5131 0.0854122 41.5131C0.0427061 41.5131 0.021353 41.47 0.021353 41.3836C0.021353 41.2973 0.0427061 41.2542 0.0854122 41.2542L1.23848 41.2758C1.8933 41.3045 2.42001 41.3189 2.8186 41.3189C3.35955 41.3189 3.9859 41.3045 4.69767 41.2758L5.87209 41.2542C5.90056 41.2542 5.91479 41.2973 5.91479 41.3836C5.91479 41.47 5.90056 41.5131 5.87209 41.5131C5.35961 41.5131 4.98238 41.5563 4.74038 41.6426C4.49837 41.7289 4.32755 41.88 4.2279 42.0958C4.14249 42.2972 4.09978 42.6137 4.09978 43.0452V47.4258H10.9968V43.0452C10.9968 42.6137 10.9541 42.2972 10.8687 42.0958C10.7833 41.88 10.6196 41.7289 10.3776 41.6426C10.1356 41.5563 9.75122 41.5131 9.22451 41.5131C9.18181 41.5131 9.16046 41.47 9.16046 41.3836C9.16046 41.2973 9.18181 41.2542 9.22451 41.2542L10.2708 41.2758C10.9826 41.3045 11.6232 41.3189 12.1926 41.3189C12.5769 41.3189 13.125 41.3045 13.8368 41.2758L15.0325 41.2542C15.0752 41.2542 15.0966 41.2973 15.0966 41.3836C15.0966 41.47 15.0752 41.5131 15.0325 41.5131C14.5485 41.5131 14.1855 41.5563 13.9435 41.6426C13.7158 41.7145 13.5592 41.8512 13.4738 42.0526C13.4026 42.254 13.367 42.5705 13.367 43.0021V52.9932C13.367 53.4247 13.4026 53.7484 13.4738 53.9642C13.5592 54.1656 13.7158 54.3023 13.9435 54.3742C14.1713 54.4461 14.5343 54.4821 15.0325 54.4821Z" fill="#195557"/>
<path d="M26.2999 51.31C26.2999 51.2812 26.3284 51.2668 26.3854 51.2668C26.4281 51.2668 26.4636 51.2812 26.4921 51.31C26.5348 51.3244 26.5562 51.3388 26.5562 51.3531C26.4138 52.4753 26.3426 53.4967 26.3426 54.4174C26.3426 54.5325 26.3213 54.6188 26.2786 54.6763C26.2359 54.7195 26.1505 54.7411 26.0224 54.7411H16.5843C16.5416 54.7411 16.5202 54.6979 16.5202 54.6116C16.5202 54.5253 16.5416 54.4821 16.5843 54.4821C17.0398 54.4821 17.3673 54.4461 17.5665 54.3742C17.7801 54.3023 17.9224 54.1656 17.9936 53.9642C18.0648 53.7484 18.1004 53.4247 18.1004 52.9932V43.0021C18.1004 42.5705 18.0648 42.254 17.9936 42.0526C17.9224 41.8512 17.7801 41.7145 17.5665 41.6426C17.353 41.5563 17.0256 41.5131 16.5843 41.5131C16.5416 41.5131 16.5202 41.47 16.5202 41.3836C16.5202 41.2973 16.5416 41.2542 16.5843 41.2542H25.638C25.7804 41.2542 25.8515 41.3189 25.8515 41.4484L25.8942 44.3184C25.8942 44.3472 25.8515 44.3687 25.7661 44.3831C25.6949 44.3975 25.6522 44.3831 25.638 44.34C25.4102 43.5056 25.0259 42.887 24.4849 42.4842C23.944 42.0814 23.2322 41.88 22.3496 41.88H21.709C21.282 41.88 20.9688 41.9735 20.7695 42.1605C20.5702 42.3475 20.4706 42.6352 20.4706 43.0237V47.4258H22.2429C23.0685 47.4258 23.702 47.2819 24.1433 46.9942C24.5846 46.7065 24.8052 46.3037 24.8052 45.7858C24.8052 45.7426 24.8408 45.721 24.912 45.721C24.9974 45.721 25.0401 45.7426 25.0401 45.7858L25.0188 47.7279L25.0401 48.7637C25.0686 49.2528 25.0828 49.6412 25.0828 49.9289C25.0828 49.9577 25.0401 49.9721 24.9547 49.9721C24.8693 49.9721 24.8266 49.9577 24.8266 49.9289C24.8266 49.3391 24.5988 48.8788 24.1433 48.5479C23.702 48.2026 23.0614 48.03 22.2215 48.03H20.4706V52.9068C20.4706 53.324 20.5489 53.6333 20.7054 53.8347C20.862 54.0361 21.1112 54.1368 21.4528 54.1368H22.1575C23.2678 54.1368 24.1575 53.9067 24.8266 53.4463C25.4956 52.986 25.9868 52.2739 26.2999 51.31Z" fill="#195557"/>
<path d="M34.4516 54.8274C33.9961 54.8274 33.4552 54.8058 32.8288 54.7626C32.601 54.7482 32.3163 54.7339 31.9747 54.7195C31.6473 54.7051 31.2771 54.6979 30.8643 54.6979L29.2842 54.7195C28.9995 54.7339 28.6151 54.7411 28.1311 54.7411C28.1027 54.7411 28.0884 54.6979 28.0884 54.6116C28.0884 54.5253 28.1027 54.4821 28.1311 54.4821C28.5867 54.4821 28.9212 54.4461 29.1347 54.3742C29.3483 54.3023 29.4906 54.1656 29.5618 53.9642C29.6472 53.7484 29.6899 53.4247 29.6899 52.9932V43.0021C29.6899 42.5705 29.6472 42.254 29.5618 42.0526C29.4906 41.8512 29.3483 41.7145 29.1347 41.6426C28.9354 41.5563 28.6151 41.5131 28.1738 41.5131C28.1311 41.5131 28.1098 41.47 28.1098 41.3836C28.1098 41.2973 28.1311 41.2542 28.1738 41.2542L29.3056 41.2758C29.9604 41.3045 30.48 41.3189 30.8643 41.3189C31.448 41.3189 32.0459 41.2973 32.658 41.2542C33.3982 41.2254 33.8965 41.211 34.1527 41.211C35.5905 41.211 36.8645 41.4987 37.9749 42.0742C39.0995 42.6496 39.9678 43.4337 40.58 44.4263C41.1921 45.4189 41.4981 46.5338 41.4981 47.771C41.4981 49.1665 41.1778 50.4037 40.5373 51.4826C39.9109 52.5472 39.0568 53.3744 37.9749 53.9642C36.9072 54.5396 35.7328 54.8274 34.4516 54.8274ZM34.2381 54.3311C35.1492 54.3311 35.9535 54.1009 36.651 53.6405C37.3485 53.1658 37.8895 52.4681 38.2738 51.5474C38.6724 50.6267 38.8717 49.5261 38.8717 48.2458C38.8717 47.023 38.6867 45.9152 38.3165 44.9226C37.9464 43.9156 37.4197 43.1244 36.7364 42.5489C36.0531 41.9735 35.2631 41.6858 34.3662 41.6858C33.4836 41.6858 32.8786 41.7721 32.5512 41.9447C32.2238 42.1173 32.0601 42.4842 32.0601 43.0452V52.7558C32.0601 53.3312 32.2096 53.7412 32.5085 53.9858C32.8075 54.216 33.384 54.3311 34.2381 54.3311Z" fill="#195557"/>
<path d="M51.2795 55C49.7136 55 48.347 54.6979 47.1797 54.0937C46.0124 53.4895 45.1227 52.6695 44.5106 51.6337C43.8985 50.5835 43.5924 49.4182 43.5924 48.1379C43.5924 46.7568 43.9412 45.5268 44.6387 44.4479C45.3505 43.3545 46.3185 42.5129 47.5427 41.9231C48.7812 41.3189 50.162 41.0168 51.6852 41.0168C52.3543 41.0168 53.0305 41.0743 53.7137 41.1894C54.397 41.2901 54.9451 41.4268 55.3579 41.5994C55.4861 41.6426 55.5643 41.7001 55.5928 41.7721C55.6355 41.8296 55.664 41.9375 55.6782 42.0958L55.9558 45.0952C55.9558 45.1384 55.9202 45.1672 55.8491 45.1815C55.7779 45.1959 55.7281 45.1744 55.6996 45.1168C55.2013 44.0091 54.5109 43.1459 53.6283 42.5273C52.76 41.9087 51.7635 41.5994 50.6389 41.5994C49.1869 41.5994 48.0765 42.1101 47.3078 43.1315C46.5534 44.153 46.1761 45.5484 46.1761 47.3179C46.1761 48.7421 46.4181 50.0153 46.9021 51.1374C47.3861 52.2451 48.0552 53.1082 48.9093 53.7268C49.7777 54.3311 50.7457 54.6332 51.8133 54.6332C52.397 54.6332 52.8454 54.5684 53.1586 54.4389C53.4717 54.3095 53.6995 54.0577 53.8419 53.6837C53.9842 53.3096 54.0554 52.7558 54.0554 52.0221C54.0554 51.274 54.0127 50.7561 53.9273 50.4684C53.8419 50.1663 53.6568 49.9649 53.3721 49.8642C53.1016 49.7635 52.6247 49.7131 51.9414 49.7131C51.856 49.7131 51.8133 49.6556 51.8133 49.5405C51.8133 49.4974 51.8204 49.4614 51.8347 49.4326C51.8632 49.3895 51.8916 49.3679 51.9201 49.3679C53.1301 49.4398 54.1052 49.4758 54.8455 49.4758C55.5715 49.4758 56.3259 49.4542 57.1089 49.411C57.1374 49.411 57.1587 49.4326 57.1729 49.4758C57.2014 49.5045 57.2156 49.5333 57.2156 49.5621C57.2156 49.6628 57.1801 49.7131 57.1089 49.7131C56.8526 49.6988 56.6747 49.7491 56.5751 49.8642C56.4754 49.9649 56.4114 50.1807 56.3829 50.5116C56.3544 50.8281 56.3402 51.4035 56.3402 52.2379C56.3402 52.8853 56.3615 53.3456 56.4042 53.6189C56.4612 53.8923 56.4896 54.0649 56.4896 54.1368C56.4896 54.2232 56.4683 54.2807 56.4256 54.3095C56.3971 54.3382 56.3331 54.367 56.2334 54.3958C54.397 54.7986 52.7457 55 51.2795 55Z" fill="#195557"/>
<path d="M68.4847 51.31C68.4847 51.2812 68.5132 51.2668 68.5701 51.2668C68.6128 51.2668 68.6484 51.2812 68.6769 51.31C68.7196 51.3244 68.741 51.3388 68.741 51.3531C68.5986 52.4753 68.5274 53.4967 68.5274 54.4174C68.5274 54.5325 68.5061 54.6188 68.4634 54.6763C68.4207 54.7195 68.3353 54.7411 68.2071 54.7411H58.7691C58.7264 54.7411 58.705 54.6979 58.705 54.6116C58.705 54.5253 58.7264 54.4821 58.7691 54.4821C59.2246 54.4821 59.552 54.4461 59.7513 54.3742C59.9649 54.3023 60.1072 54.1656 60.1784 53.9642C60.2496 53.7484 60.2851 53.4247 60.2851 52.9932V43.0021C60.2851 42.5705 60.2496 42.254 60.1784 42.0526C60.1072 41.8512 59.9649 41.7145 59.7513 41.6426C59.5378 41.5563 59.2104 41.5131 58.7691 41.5131C58.7264 41.5131 58.705 41.47 58.705 41.3836C58.705 41.2973 58.7264 41.2542 58.7691 41.2542H67.8228C67.9651 41.2542 68.0363 41.3189 68.0363 41.4484L68.079 44.3184C68.079 44.3472 68.0363 44.3687 67.9509 44.3831C67.8797 44.3975 67.837 44.3831 67.8228 44.34C67.595 43.5056 67.2107 42.887 66.6697 42.4842C66.1288 42.0814 65.417 41.88 64.5344 41.88H63.8938C63.4668 41.88 63.1536 41.9735 62.9543 42.1605C62.755 42.3475 62.6553 42.6352 62.6553 43.0237V47.4258H64.4276C65.2533 47.4258 65.8868 47.2819 66.3281 46.9942C66.7694 46.7065 66.99 46.3037 66.99 45.7858C66.99 45.7426 67.0256 45.721 67.0968 45.721C67.1822 45.721 67.2249 45.7426 67.2249 45.7858L67.2035 47.7279L67.2249 48.7637C67.2534 49.2528 67.2676 49.6412 67.2676 49.9289C67.2676 49.9577 67.2249 49.9721 67.1395 49.9721C67.0541 49.9721 67.0114 49.9577 67.0114 49.9289C67.0114 49.3391 66.7836 48.8788 66.3281 48.5479C65.8868 48.2026 65.2462 48.03 64.4063 48.03H62.6553V52.9068C62.6553 53.324 62.7336 53.6333 62.8902 53.8347C63.0468 54.0361 63.2959 54.1368 63.6376 54.1368H64.3422C65.4526 54.1368 66.3423 53.9067 67.0114 53.4463C67.6804 52.986 68.1715 52.2739 68.4847 51.31Z" fill="#195557"/>
<path d="M85.3057 54.4821C85.3484 54.4821 85.3698 54.5253 85.3698 54.6116C85.3698 54.6979 85.3484 54.7411 85.3057 54.7411C84.8075 54.7411 84.4089 54.7339 84.11 54.7195L82.4658 54.6979L80.544 54.7195C80.2878 54.7339 79.939 54.7411 79.4977 54.7411C79.455 54.7411 79.4337 54.6979 79.4337 54.6116C79.4337 54.5253 79.455 54.4821 79.4977 54.4821C80.0244 54.4821 80.4088 54.4461 80.6508 54.3742C80.8928 54.3023 81.0565 54.1656 81.1419 53.9642C81.2273 53.7628 81.27 53.4391 81.27 52.9932V48.03H74.373V52.9932C74.373 53.4247 74.4157 53.7484 74.5011 53.9642C74.5865 54.1656 74.7502 54.3023 74.9922 54.3742C75.2342 54.4461 75.6186 54.4821 76.1453 54.4821C76.1738 54.4821 76.188 54.5253 76.188 54.6116C76.188 54.6979 76.1738 54.7411 76.1453 54.7411C75.6471 54.7411 75.2485 54.7339 74.9495 54.7195L73.0918 54.6979L71.4903 54.7195C71.2056 54.7339 70.8141 54.7411 70.3159 54.7411C70.2874 54.7411 70.2732 54.6979 70.2732 54.6116C70.2732 54.5253 70.2874 54.4821 70.3159 54.4821C70.8141 54.4821 71.1771 54.4461 71.4049 54.3742C71.6327 54.3023 71.7893 54.1656 71.8747 53.9642C71.9601 53.7484 72.0028 53.4247 72.0028 52.9932V43.0021C72.0028 42.5705 71.9601 42.254 71.8747 42.0526C71.7893 41.8512 71.6327 41.7145 71.4049 41.6426C71.1914 41.5563 70.8426 41.5131 70.3586 41.5131C70.3159 41.5131 70.2946 41.47 70.2946 41.3836C70.2946 41.2973 70.3159 41.2542 70.3586 41.2542L71.5117 41.2758C72.1665 41.3045 72.6932 41.3189 73.0918 41.3189C73.6327 41.3189 74.2591 41.3045 74.9709 41.2758L76.1453 41.2542C76.1738 41.2542 76.188 41.2973 76.188 41.3836C76.188 41.47 76.1738 41.5131 76.1453 41.5131C75.6328 41.5131 75.2556 41.5563 75.0136 41.6426C74.7716 41.7289 74.6008 41.88 74.5011 42.0958C74.4157 42.2972 74.373 42.6137 74.373 43.0452V47.4258H81.27V43.0452C81.27 42.6137 81.2273 42.2972 81.1419 42.0958C81.0565 41.88 80.8928 41.7289 80.6508 41.6426C80.4088 41.5563 80.0244 41.5131 79.4977 41.5131C79.455 41.5131 79.4337 41.47 79.4337 41.3836C79.4337 41.2973 79.455 41.2542 79.4977 41.2542L80.544 41.2758C81.2558 41.3045 81.8964 41.3189 82.4658 41.3189C82.8502 41.3189 83.3982 41.3045 84.11 41.2758L85.3057 41.2542C85.3484 41.2542 85.3698 41.2973 85.3698 41.3836C85.3698 41.47 85.3484 41.5131 85.3057 41.5131C84.8217 41.5131 84.4587 41.5563 84.2167 41.6426C83.989 41.7145 83.8324 41.8512 83.747 42.0526C83.6758 42.254 83.6402 42.5705 83.6402 43.0021V52.9932C83.6402 53.4247 83.6758 53.7484 83.747 53.9642C83.8324 54.1656 83.989 54.3023 84.2167 54.3742C84.4445 54.4461 84.8075 54.4821 85.3057 54.4821Z" fill="#195557"/>
<path d="M93.7972 55C92.4734 55 91.2918 54.6907 90.2526 54.0721C89.2277 53.4391 88.4305 52.5903 87.8611 51.5258C87.3059 50.4468 87.0283 49.2744 87.0283 48.0084C87.0283 46.5266 87.3985 45.2607 88.1387 44.2105C88.8789 43.1459 89.8256 42.3475 90.9786 41.8152C92.1459 41.2829 93.3346 41.0168 94.5446 41.0168C95.897 41.0168 97.0856 41.3405 98.1106 41.9879C99.1355 42.6208 99.9185 43.4624 100.459 44.5126C101.015 45.5628 101.292 46.6777 101.292 47.8573C101.292 49.1665 100.951 50.3677 100.267 51.461C99.5839 52.5544 98.6657 53.4175 97.5127 54.0505C96.3738 54.6835 95.1354 55 93.7972 55ZM94.5019 54.4605C95.2991 54.4605 96.0108 54.2303 96.6372 53.77C97.2778 53.2953 97.776 52.6119 98.1319 51.72C98.4878 50.8137 98.6657 49.7347 98.6657 48.4831C98.6657 47.1596 98.4664 45.98 98.0679 44.9442C97.6693 43.894 97.0927 43.074 96.3383 42.4842C95.5838 41.8943 94.7012 41.5994 93.6905 41.5994C92.3951 41.5994 91.3986 42.0958 90.7011 43.0884C90.0035 44.0666 89.6548 45.4405 89.6548 47.21C89.6548 48.6054 89.8612 49.857 90.274 50.9647C90.7011 52.0581 91.2776 52.914 92.0036 53.5326C92.7438 54.1512 93.5766 54.4605 94.5019 54.4605Z" fill="#195557"/>
<path d="M111.064 55C109.498 55 108.131 54.6979 106.964 54.0937C105.797 53.4895 104.907 52.6695 104.295 51.6337C103.683 50.5835 103.377 49.4182 103.377 48.1379C103.377 46.7568 103.726 45.5268 104.423 44.4479C105.135 43.3545 106.103 42.5129 107.327 41.9231C108.566 41.3189 109.946 41.0168 111.47 41.0168C112.139 41.0168 112.815 41.0743 113.498 41.1894C114.181 41.2901 114.729 41.4268 115.142 41.5994C115.27 41.6426 115.349 41.7001 115.377 41.7721C115.42 41.8296 115.448 41.9375 115.463 42.0958L115.74 45.0952C115.74 45.1384 115.705 45.1672 115.633 45.1815C115.562 45.1959 115.512 45.1744 115.484 45.1168C114.986 44.0091 114.295 43.1459 113.413 42.5273C112.544 41.9087 111.548 41.5994 110.423 41.5994C108.971 41.5994 107.861 42.1101 107.092 43.1315C106.338 44.153 105.96 45.5484 105.96 47.3179C105.96 48.7421 106.202 50.0153 106.686 51.1374C107.17 52.2451 107.84 53.1082 108.694 53.7268C109.562 54.3311 110.53 54.6332 111.598 54.6332C112.181 54.6332 112.63 54.5684 112.943 54.4389C113.256 54.3095 113.484 54.0577 113.626 53.6837C113.769 53.3096 113.84 52.7558 113.84 52.0221C113.84 51.274 113.797 50.7561 113.712 50.4684C113.626 50.1663 113.441 49.9649 113.156 49.8642C112.886 49.7635 112.409 49.7131 111.726 49.7131C111.64 49.7131 111.598 49.6556 111.598 49.5405C111.598 49.4974 111.605 49.4614 111.619 49.4326C111.648 49.3895 111.676 49.3679 111.704 49.3679C112.914 49.4398 113.89 49.4758 114.63 49.4758C115.356 49.4758 116.11 49.4542 116.893 49.411C116.922 49.411 116.943 49.4326 116.957 49.4758C116.986 49.5045 117 49.5333 117 49.5621C117 49.6628 116.964 49.7131 116.893 49.7131C116.637 49.6988 116.459 49.7491 116.359 49.8642C116.26 49.9649 116.196 50.1807 116.167 50.5116C116.139 50.8281 116.125 51.4035 116.125 52.2379C116.125 52.8853 116.146 53.3456 116.189 53.6189C116.246 53.8923 116.274 54.0649 116.274 54.1368C116.274 54.2232 116.253 54.2807 116.21 54.3095C116.181 54.3382 116.117 54.367 116.018 54.3958C114.181 54.7986 112.53 55 111.064 55Z" fill="#195557"/>
<path d="M83.5711 17.6539H113.932V18.9323H83.5711V17.6539Z" fill="#195557"/>
<path d="M1.3433 17.6539H30.4393V18.9323H1.3433V17.6539Z" fill="#195557"/>
<path d="M67.1029 21.8108C67.1029 22.235 67.4432 22.5789 67.8629 22.5789H69.257C69.6767 22.5789 70.017 22.235 70.017 21.8108C70.017 21.3867 69.6767 21.0428 69.257 21.0428H67.8629C67.4432 21.0428 67.1029 21.3867 67.1029 21.8108Z" stroke="black" stroke-width="2" mask="url(#path-1-inside-1)"/>
<path d="M77.0555 25.9739C76.8991 25.9739 76.746 25.988 76.5967 26.0137L71.5876 17.6152C71.6077 17.5905 71.627 17.5646 71.6443 17.5369L75.0081 12.1378C75.1476 11.914 75.1632 11.6333 75.0496 11.3951C74.936 11.1568 74.709 10.9943 74.4489 10.9651L68.9302 10.3458L69.5568 4.77066C69.5863 4.50808 69.4803 4.24857 69.2757 4.08367C69.0715 3.91886 68.7975 3.87169 68.5506 3.95907L63.3098 5.81312L61.4798 0.514987C61.3935 0.265238 61.1863 0.077926 60.9311 0.0191934C60.6761 -0.0393585 60.4087 0.0385302 60.224 0.225842L56.3032 4.20023L52.3824 0.225842C52.1976 0.0385302 51.9304 -0.0395392 51.6754 0.0191934C51.4202 0.077926 51.2129 0.265328 51.1266 0.514897L49.2967 5.81303L44.0558 3.95907C43.8088 3.87178 43.535 3.91877 43.3306 4.08367C43.1262 4.24848 43.02 4.50799 43.0495 4.77066L43.6761 10.3458L38.1575 10.9652C37.8973 10.9944 37.6704 11.1569 37.5567 11.3952C37.4431 11.6334 37.4587 11.914 37.5982 12.1379L40.5566 16.8862L35.8552 19.8699C35.6338 20.0104 35.4994 20.2561 35.4994 20.5203C35.4994 20.7845 35.6338 21.0301 35.8552 21.1707L40.5567 24.1545L37.5983 28.9028C37.4509 29.1394 37.4424 29.4382 37.5759 29.6829C37.7094 29.9276 37.964 30.0798 38.2406 30.0802L74.7147 30.1216C75.1891 30.9295 76.0606 31.4725 77.0556 31.4725C78.5556 31.4725 79.7761 30.2392 79.7761 28.7232C79.7759 27.2071 78.5555 25.9739 77.0555 25.9739ZM74.3385 28.5851L60.7878 28.5697C58.9935 22.4277 63.437 17.651 68.6207 15.6166L75.2255 26.6905C74.7102 27.1648 74.3754 27.8359 74.3385 28.5851ZM42.2483 24.3223C42.3558 24.1498 42.391 23.9412 42.3462 23.7424C42.3013 23.5437 42.1803 23.3711 42.0094 23.2626L37.6885 20.5202L42.0094 17.7779C42.1803 17.6694 42.3014 17.4968 42.3462 17.2981C42.3911 17.0993 42.3558 16.8906 42.2483 16.7181L39.5308 12.3565L44.6011 11.7874C44.8018 11.7649 44.9853 11.6625 45.1113 11.5031C45.2373 11.3437 45.2952 11.1401 45.2724 10.9374L44.6965 5.81303L49.5123 7.51673C49.7026 7.58404 49.9116 7.57203 50.0934 7.48375C50.2751 7.3952 50.4145 7.23734 50.481 7.04506L52.1621 2.17811L55.765 5.83029C55.9076 5.97486 56.1012 6.05609 56.3032 6.05609C56.5052 6.05609 56.6989 5.97486 56.8415 5.83029L60.4444 2.17811L62.1254 7.04506C62.1919 7.23752 62.3314 7.39538 62.513 7.48384C62.6946 7.5723 62.9038 7.58422 63.0941 7.51682L67.91 5.81312L67.3341 10.9375C67.3113 11.1402 67.3693 11.3437 67.4952 11.5032C67.6211 11.6628 67.8047 11.765 68.0053 11.7875L73.0757 12.3565L70.713 16.1485L69.5989 14.2806C69.4135 13.9699 69.0382 13.8328 68.6993 13.9513C65.2141 15.1709 62.3513 17.3009 60.6386 19.9491C58.9329 22.5865 58.447 25.547 59.2108 28.5677L39.6173 28.5454L42.2483 24.3223ZM77.0555 29.9363C76.3936 29.9363 75.855 29.3921 75.855 28.7231C75.855 28.0541 76.3936 27.5098 77.0555 27.5098C77.7174 27.5098 78.256 28.0541 78.256 28.7231C78.256 29.3921 77.7174 29.9363 77.0555 29.9363Z" stroke="black" stroke-width="2" mask="url(#path-1-inside-1)"/>
<path d="M15.0325 54.4821C15.0752 54.4821 15.0966 54.5253 15.0966 54.6116C15.0966 54.6979 15.0752 54.7411 15.0325 54.7411C14.5343 54.7411 14.1357 54.7339 13.8368 54.7195L12.1926 54.6979L10.2708 54.7195C10.0146 54.7339 9.66581 54.7411 9.22451 54.7411C9.18181 54.7411 9.16046 54.6979 9.16046 54.6116C9.16046 54.5253 9.18181 54.4821 9.22451 54.4821C9.75122 54.4821 10.1356 54.4461 10.3776 54.3742C10.6196 54.3023 10.7833 54.1656 10.8687 53.9642C10.9541 53.7628 10.9968 53.4391 10.9968 52.9932V48.03H4.09978V52.9932C4.09978 53.4247 4.14249 53.7484 4.2279 53.9642C4.31332 54.1656 4.47702 54.3023 4.71902 54.3742C4.96102 54.4461 5.34538 54.4821 5.87209 54.4821C5.90056 54.4821 5.91479 54.5253 5.91479 54.6116C5.91479 54.6979 5.90056 54.7411 5.87209 54.7411C5.37385 54.7411 4.97526 54.7339 4.67632 54.7195L2.8186 54.6979L1.21712 54.7195C0.932416 54.7339 0.540944 54.7411 0.0427061 54.7411C0.0142354 54.7411 0 54.6979 0 54.6116C0 54.5253 0.0142354 54.4821 0.0427061 54.4821C0.540944 54.4821 0.903946 54.4461 1.13171 54.3742C1.35948 54.3023 1.51607 54.1656 1.60148 53.9642C1.68689 53.7484 1.7296 53.4247 1.7296 52.9932V43.0021C1.7296 42.5705 1.68689 42.254 1.60148 42.0526C1.51607 41.8512 1.35948 41.7145 1.13171 41.6426C0.918181 41.5563 0.569414 41.5131 0.0854122 41.5131C0.0427061 41.5131 0.021353 41.47 0.021353 41.3836C0.021353 41.2973 0.0427061 41.2542 0.0854122 41.2542L1.23848 41.2758C1.8933 41.3045 2.42001 41.3189 2.8186 41.3189C3.35955 41.3189 3.9859 41.3045 4.69767 41.2758L5.87209 41.2542C5.90056 41.2542 5.91479 41.2973 5.91479 41.3836C5.91479 41.47 5.90056 41.5131 5.87209 41.5131C5.35961 41.5131 4.98238 41.5563 4.74038 41.6426C4.49837 41.7289 4.32755 41.88 4.2279 42.0958C4.14249 42.2972 4.09978 42.6137 4.09978 43.0452V47.4258H10.9968V43.0452C10.9968 42.6137 10.9541 42.2972 10.8687 42.0958C10.7833 41.88 10.6196 41.7289 10.3776 41.6426C10.1356 41.5563 9.75122 41.5131 9.22451 41.5131C9.18181 41.5131 9.16046 41.47 9.16046 41.3836C9.16046 41.2973 9.18181 41.2542 9.22451 41.2542L10.2708 41.2758C10.9826 41.3045 11.6232 41.3189 12.1926 41.3189C12.5769 41.3189 13.125 41.3045 13.8368 41.2758L15.0325 41.2542C15.0752 41.2542 15.0966 41.2973 15.0966 41.3836C15.0966 41.47 15.0752 41.5131 15.0325 41.5131C14.5485 41.5131 14.1855 41.5563 13.9435 41.6426C13.7158 41.7145 13.5592 41.8512 13.4738 42.0526C13.4026 42.254 13.367 42.5705 13.367 43.0021V52.9932C13.367 53.4247 13.4026 53.7484 13.4738 53.9642C13.5592 54.1656 13.7158 54.3023 13.9435 54.3742C14.1713 54.4461 14.5343 54.4821 15.0325 54.4821Z" stroke="black" stroke-width="2" mask="url(#path-1-inside-1)"/>
<path d="M26.2999 51.31C26.2999 51.2812 26.3284 51.2668 26.3854 51.2668C26.4281 51.2668 26.4636 51.2812 26.4921 51.31C26.5348 51.3244 26.5562 51.3388 26.5562 51.3531C26.4138 52.4753 26.3426 53.4967 26.3426 54.4174C26.3426 54.5325 26.3213 54.6188 26.2786 54.6763C26.2359 54.7195 26.1505 54.7411 26.0224 54.7411H16.5843C16.5416 54.7411 16.5202 54.6979 16.5202 54.6116C16.5202 54.5253 16.5416 54.4821 16.5843 54.4821C17.0398 54.4821 17.3673 54.4461 17.5665 54.3742C17.7801 54.3023 17.9224 54.1656 17.9936 53.9642C18.0648 53.7484 18.1004 53.4247 18.1004 52.9932V43.0021C18.1004 42.5705 18.0648 42.254 17.9936 42.0526C17.9224 41.8512 17.7801 41.7145 17.5665 41.6426C17.353 41.5563 17.0256 41.5131 16.5843 41.5131C16.5416 41.5131 16.5202 41.47 16.5202 41.3836C16.5202 41.2973 16.5416 41.2542 16.5843 41.2542H25.638C25.7804 41.2542 25.8515 41.3189 25.8515 41.4484L25.8942 44.3184C25.8942 44.3472 25.8515 44.3687 25.7661 44.3831C25.6949 44.3975 25.6522 44.3831 25.638 44.34C25.4102 43.5056 25.0259 42.887 24.4849 42.4842C23.944 42.0814 23.2322 41.88 22.3496 41.88H21.709C21.282 41.88 20.9688 41.9735 20.7695 42.1605C20.5702 42.3475 20.4706 42.6352 20.4706 43.0237V47.4258H22.2429C23.0685 47.4258 23.702 47.2819 24.1433 46.9942C24.5846 46.7065 24.8052 46.3037 24.8052 45.7858C24.8052 45.7426 24.8408 45.721 24.912 45.721C24.9974 45.721 25.0401 45.7426 25.0401 45.7858L25.0188 47.7279L25.0401 48.7637C25.0686 49.2528 25.0828 49.6412 25.0828 49.9289C25.0828 49.9577 25.0401 49.9721 24.9547 49.9721C24.8693 49.9721 24.8266 49.9577 24.8266 49.9289C24.8266 49.3391 24.5988 48.8788 24.1433 48.5479C23.702 48.2026 23.0614 48.03 22.2215 48.03H20.4706V52.9068C20.4706 53.324 20.5489 53.6333 20.7054 53.8347C20.862 54.0361 21.1112 54.1368 21.4528 54.1368H22.1575C23.2678 54.1368 24.1575 53.9067 24.8266 53.4463C25.4956 52.986 25.9868 52.2739 26.2999 51.31Z" stroke="black" stroke-width="2" mask="url(#path-1-inside-1)"/>
<path d="M34.4516 54.8274C33.9961 54.8274 33.4552 54.8058 32.8288 54.7626C32.601 54.7482 32.3163 54.7339 31.9747 54.7195C31.6473 54.7051 31.2771 54.6979 30.8643 54.6979L29.2842 54.7195C28.9995 54.7339 28.6151 54.7411 28.1311 54.7411C28.1027 54.7411 28.0884 54.6979 28.0884 54.6116C28.0884 54.5253 28.1027 54.4821 28.1311 54.4821C28.5867 54.4821 28.9212 54.4461 29.1347 54.3742C29.3483 54.3023 29.4906 54.1656 29.5618 53.9642C29.6472 53.7484 29.6899 53.4247 29.6899 52.9932V43.0021C29.6899 42.5705 29.6472 42.254 29.5618 42.0526C29.4906 41.8512 29.3483 41.7145 29.1347 41.6426C28.9354 41.5563 28.6151 41.5131 28.1738 41.5131C28.1311 41.5131 28.1098 41.47 28.1098 41.3836C28.1098 41.2973 28.1311 41.2542 28.1738 41.2542L29.3056 41.2758C29.9604 41.3045 30.48 41.3189 30.8643 41.3189C31.448 41.3189 32.0459 41.2973 32.658 41.2542C33.3982 41.2254 33.8965 41.211 34.1527 41.211C35.5905 41.211 36.8645 41.4987 37.9749 42.0742C39.0995 42.6496 39.9678 43.4337 40.58 44.4263C41.1921 45.4189 41.4981 46.5338 41.4981 47.771C41.4981 49.1665 41.1778 50.4037 40.5373 51.4826C39.9109 52.5472 39.0568 53.3744 37.9749 53.9642C36.9072 54.5396 35.7328 54.8274 34.4516 54.8274ZM34.2381 54.3311C35.1492 54.3311 35.9535 54.1009 36.651 53.6405C37.3485 53.1658 37.8895 52.4681 38.2738 51.5474C38.6724 50.6267 38.8717 49.5261 38.8717 48.2458C38.8717 47.023 38.6867 45.9152 38.3165 44.9226C37.9464 43.9156 37.4197 43.1244 36.7364 42.5489C36.0531 41.9735 35.2631 41.6858 34.3662 41.6858C33.4836 41.6858 32.8786 41.7721 32.5512 41.9447C32.2238 42.1173 32.0601 42.4842 32.0601 43.0452V52.7558C32.0601 53.3312 32.2096 53.7412 32.5085 53.9858C32.8075 54.216 33.384 54.3311 34.2381 54.3311Z" stroke="black" stroke-width="2" mask="url(#path-1-inside-1)"/>
<path d="M51.2795 55C49.7136 55 48.347 54.6979 47.1797 54.0937C46.0124 53.4895 45.1227 52.6695 44.5106 51.6337C43.8985 50.5835 43.5924 49.4182 43.5924 48.1379C43.5924 46.7568 43.9412 45.5268 44.6387 44.4479C45.3505 43.3545 46.3185 42.5129 47.5427 41.9231C48.7812 41.3189 50.162 41.0168 51.6852 41.0168C52.3543 41.0168 53.0305 41.0743 53.7137 41.1894C54.397 41.2901 54.9451 41.4268 55.3579 41.5994C55.4861 41.6426 55.5643 41.7001 55.5928 41.7721C55.6355 41.8296 55.664 41.9375 55.6782 42.0958L55.9558 45.0952C55.9558 45.1384 55.9202 45.1672 55.8491 45.1815C55.7779 45.1959 55.7281 45.1744 55.6996 45.1168C55.2013 44.0091 54.5109 43.1459 53.6283 42.5273C52.76 41.9087 51.7635 41.5994 50.6389 41.5994C49.1869 41.5994 48.0765 42.1101 47.3078 43.1315C46.5534 44.153 46.1761 45.5484 46.1761 47.3179C46.1761 48.7421 46.4181 50.0153 46.9021 51.1374C47.3861 52.2451 48.0552 53.1082 48.9093 53.7268C49.7777 54.3311 50.7457 54.6332 51.8133 54.6332C52.397 54.6332 52.8454 54.5684 53.1586 54.4389C53.4717 54.3095 53.6995 54.0577 53.8419 53.6837C53.9842 53.3096 54.0554 52.7558 54.0554 52.0221C54.0554 51.274 54.0127 50.7561 53.9273 50.4684C53.8419 50.1663 53.6568 49.9649 53.3721 49.8642C53.1016 49.7635 52.6247 49.7131 51.9414 49.7131C51.856 49.7131 51.8133 49.6556 51.8133 49.5405C51.8133 49.4974 51.8204 49.4614 51.8347 49.4326C51.8632 49.3895 51.8916 49.3679 51.9201 49.3679C53.1301 49.4398 54.1052 49.4758 54.8455 49.4758C55.5715 49.4758 56.3259 49.4542 57.1089 49.411C57.1374 49.411 57.1587 49.4326 57.1729 49.4758C57.2014 49.5045 57.2156 49.5333 57.2156 49.5621C57.2156 49.6628 57.1801 49.7131 57.1089 49.7131C56.8526 49.6988 56.6747 49.7491 56.5751 49.8642C56.4754 49.9649 56.4114 50.1807 56.3829 50.5116C56.3544 50.8281 56.3402 51.4035 56.3402 52.2379C56.3402 52.8853 56.3615 53.3456 56.4042 53.6189C56.4612 53.8923 56.4896 54.0649 56.4896 54.1368C56.4896 54.2232 56.4683 54.2807 56.4256 54.3095C56.3971 54.3382 56.3331 54.367 56.2334 54.3958C54.397 54.7986 52.7457 55 51.2795 55Z" stroke="black" stroke-width="2" mask="url(#path-1-inside-1)"/>
<path d="M68.4847 51.31C68.4847 51.2812 68.5132 51.2668 68.5701 51.2668C68.6128 51.2668 68.6484 51.2812 68.6769 51.31C68.7196 51.3244 68.741 51.3388 68.741 51.3531C68.5986 52.4753 68.5274 53.4967 68.5274 54.4174C68.5274 54.5325 68.5061 54.6188 68.4634 54.6763C68.4207 54.7195 68.3353 54.7411 68.2071 54.7411H58.7691C58.7264 54.7411 58.705 54.6979 58.705 54.6116C58.705 54.5253 58.7264 54.4821 58.7691 54.4821C59.2246 54.4821 59.552 54.4461 59.7513 54.3742C59.9649 54.3023 60.1072 54.1656 60.1784 53.9642C60.2496 53.7484 60.2851 53.4247 60.2851 52.9932V43.0021C60.2851 42.5705 60.2496 42.254 60.1784 42.0526C60.1072 41.8512 59.9649 41.7145 59.7513 41.6426C59.5378 41.5563 59.2104 41.5131 58.7691 41.5131C58.7264 41.5131 58.705 41.47 58.705 41.3836C58.705 41.2973 58.7264 41.2542 58.7691 41.2542H67.8228C67.9651 41.2542 68.0363 41.3189 68.0363 41.4484L68.079 44.3184C68.079 44.3472 68.0363 44.3687 67.9509 44.3831C67.8797 44.3975 67.837 44.3831 67.8228 44.34C67.595 43.5056 67.2107 42.887 66.6697 42.4842C66.1288 42.0814 65.417 41.88 64.5344 41.88H63.8938C63.4668 41.88 63.1536 41.9735 62.9543 42.1605C62.755 42.3475 62.6553 42.6352 62.6553 43.0237V47.4258H64.4276C65.2533 47.4258 65.8868 47.2819 66.3281 46.9942C66.7694 46.7065 66.99 46.3037 66.99 45.7858C66.99 45.7426 67.0256 45.721 67.0968 45.721C67.1822 45.721 67.2249 45.7426 67.2249 45.7858L67.2035 47.7279L67.2249 48.7637C67.2534 49.2528 67.2676 49.6412 67.2676 49.9289C67.2676 49.9577 67.2249 49.9721 67.1395 49.9721C67.0541 49.9721 67.0114 49.9577 67.0114 49.9289C67.0114 49.3391 66.7836 48.8788 66.3281 48.5479C65.8868 48.2026 65.2462 48.03 64.4063 48.03H62.6553V52.9068C62.6553 53.324 62.7336 53.6333 62.8902 53.8347C63.0468 54.0361 63.2959 54.1368 63.6376 54.1368H64.3422C65.4526 54.1368 66.3423 53.9067 67.0114 53.4463C67.6804 52.986 68.1715 52.2739 68.4847 51.31Z" stroke="black" stroke-width="2" mask="url(#path-1-inside-1)"/>
<path d="M85.3057 54.4821C85.3484 54.4821 85.3698 54.5253 85.3698 54.6116C85.3698 54.6979 85.3484 54.7411 85.3057 54.7411C84.8075 54.7411 84.4089 54.7339 84.11 54.7195L82.4658 54.6979L80.544 54.7195C80.2878 54.7339 79.939 54.7411 79.4977 54.7411C79.455 54.7411 79.4337 54.6979 79.4337 54.6116C79.4337 54.5253 79.455 54.4821 79.4977 54.4821C80.0244 54.4821 80.4088 54.4461 80.6508 54.3742C80.8928 54.3023 81.0565 54.1656 81.1419 53.9642C81.2273 53.7628 81.27 53.4391 81.27 52.9932V48.03H74.373V52.9932C74.373 53.4247 74.4157 53.7484 74.5011 53.9642C74.5865 54.1656 74.7502 54.3023 74.9922 54.3742C75.2342 54.4461 75.6186 54.4821 76.1453 54.4821C76.1738 54.4821 76.188 54.5253 76.188 54.6116C76.188 54.6979 76.1738 54.7411 76.1453 54.7411C75.6471 54.7411 75.2485 54.7339 74.9495 54.7195L73.0918 54.6979L71.4903 54.7195C71.2056 54.7339 70.8141 54.7411 70.3159 54.7411C70.2874 54.7411 70.2732 54.6979 70.2732 54.6116C70.2732 54.5253 70.2874 54.4821 70.3159 54.4821C70.8141 54.4821 71.1771 54.4461 71.4049 54.3742C71.6327 54.3023 71.7893 54.1656 71.8747 53.9642C71.9601 53.7484 72.0028 53.4247 72.0028 52.9932V43.0021C72.0028 42.5705 71.9601 42.254 71.8747 42.0526C71.7893 41.8512 71.6327 41.7145 71.4049 41.6426C71.1914 41.5563 70.8426 41.5131 70.3586 41.5131C70.3159 41.5131 70.2946 41.47 70.2946 41.3836C70.2946 41.2973 70.3159 41.2542 70.3586 41.2542L71.5117 41.2758C72.1665 41.3045 72.6932 41.3189 73.0918 41.3189C73.6327 41.3189 74.2591 41.3045 74.9709 41.2758L76.1453 41.2542C76.1738 41.2542 76.188 41.2973 76.188 41.3836C76.188 41.47 76.1738 41.5131 76.1453 41.5131C75.6328 41.5131 75.2556 41.5563 75.0136 41.6426C74.7716 41.7289 74.6008 41.88 74.5011 42.0958C74.4157 42.2972 74.373 42.6137 74.373 43.0452V47.4258H81.27V43.0452C81.27 42.6137 81.2273 42.2972 81.1419 42.0958C81.0565 41.88 80.8928 41.7289 80.6508 41.6426C80.4088 41.5563 80.0244 41.5131 79.4977 41.5131C79.455 41.5131 79.4337 41.47 79.4337 41.3836C79.4337 41.2973 79.455 41.2542 79.4977 41.2542L80.544 41.2758C81.2558 41.3045 81.8964 41.3189 82.4658 41.3189C82.8502 41.3189 83.3982 41.3045 84.11 41.2758L85.3057 41.2542C85.3484 41.2542 85.3698 41.2973 85.3698 41.3836C85.3698 41.47 85.3484 41.5131 85.3057 41.5131C84.8217 41.5131 84.4587 41.5563 84.2167 41.6426C83.989 41.7145 83.8324 41.8512 83.747 42.0526C83.6758 42.254 83.6402 42.5705 83.6402 43.0021V52.9932C83.6402 53.4247 83.6758 53.7484 83.747 53.9642C83.8324 54.1656 83.989 54.3023 84.2167 54.3742C84.4445 54.4461 84.8075 54.4821 85.3057 54.4821Z" stroke="black" stroke-width="2" mask="url(#path-1-inside-1)"/>
<path d="M93.7972 55C92.4734 55 91.2918 54.6907 90.2526 54.0721C89.2277 53.4391 88.4305 52.5903 87.8611 51.5258C87.3059 50.4468 87.0283 49.2744 87.0283 48.0084C87.0283 46.5266 87.3985 45.2607 88.1387 44.2105C88.8789 43.1459 89.8256 42.3475 90.9786 41.8152C92.1459 41.2829 93.3346 41.0168 94.5446 41.0168C95.897 41.0168 97.0856 41.3405 98.1106 41.9879C99.1355 42.6208 99.9185 43.4624 100.459 44.5126C101.015 45.5628 101.292 46.6777 101.292 47.8573C101.292 49.1665 100.951 50.3677 100.267 51.461C99.5839 52.5544 98.6657 53.4175 97.5127 54.0505C96.3738 54.6835 95.1354 55 93.7972 55ZM94.5019 54.4605C95.2991 54.4605 96.0108 54.2303 96.6372 53.77C97.2778 53.2953 97.776 52.6119 98.1319 51.72C98.4878 50.8137 98.6657 49.7347 98.6657 48.4831C98.6657 47.1596 98.4664 45.98 98.0679 44.9442C97.6693 43.894 97.0927 43.074 96.3383 42.4842C95.5838 41.8943 94.7012 41.5994 93.6905 41.5994C92.3951 41.5994 91.3986 42.0958 90.7011 43.0884C90.0035 44.0666 89.6548 45.4405 89.6548 47.21C89.6548 48.6054 89.8612 49.857 90.274 50.9647C90.7011 52.0581 91.2776 52.914 92.0036 53.5326C92.7438 54.1512 93.5766 54.4605 94.5019 54.4605Z" stroke="black" stroke-width="2" mask="url(#path-1-inside-1)"/>
<path d="M111.064 55C109.498 55 108.131 54.6979 106.964 54.0937C105.797 53.4895 104.907 52.6695 104.295 51.6337C103.683 50.5835 103.377 49.4182 103.377 48.1379C103.377 46.7568 103.726 45.5268 104.423 44.4479C105.135 43.3545 106.103 42.5129 107.327 41.9231C108.566 41.3189 109.946 41.0168 111.47 41.0168C112.139 41.0168 112.815 41.0743 113.498 41.1894C114.181 41.2901 114.729 41.4268 115.142 41.5994C115.27 41.6426 115.349 41.7001 115.377 41.7721C115.42 41.8296 115.448 41.9375 115.463 42.0958L115.74 45.0952C115.74 45.1384 115.705 45.1672 115.633 45.1815C115.562 45.1959 115.512 45.1744 115.484 45.1168C114.986 44.0091 114.295 43.1459 113.413 42.5273C112.544 41.9087 111.548 41.5994 110.423 41.5994C108.971 41.5994 107.861 42.1101 107.092 43.1315C106.338 44.153 105.96 45.5484 105.96 47.3179C105.96 48.7421 106.202 50.0153 106.686 51.1374C107.17 52.2451 107.84 53.1082 108.694 53.7268C109.562 54.3311 110.53 54.6332 111.598 54.6332C112.181 54.6332 112.63 54.5684 112.943 54.4389C113.256 54.3095 113.484 54.0577 113.626 53.6837C113.769 53.3096 113.84 52.7558 113.84 52.0221C113.84 51.274 113.797 50.7561 113.712 50.4684C113.626 50.1663 113.441 49.9649 113.156 49.8642C112.886 49.7635 112.409 49.7131 111.726 49.7131C111.64 49.7131 111.598 49.6556 111.598 49.5405C111.598 49.4974 111.605 49.4614 111.619 49.4326C111.648 49.3895 111.676 49.3679 111.704 49.3679C112.914 49.4398 113.89 49.4758 114.63 49.4758C115.356 49.4758 116.11 49.4542 116.893 49.411C116.922 49.411 116.943 49.4326 116.957 49.4758C116.986 49.5045 117 49.5333 117 49.5621C117 49.6628 116.964 49.7131 116.893 49.7131C116.637 49.6988 116.459 49.7491 116.359 49.8642C116.26 49.9649 116.196 50.1807 116.167 50.5116C116.139 50.8281 116.125 51.4035 116.125 52.2379C116.125 52.8853 116.146 53.3456 116.189 53.6189C116.246 53.8923 116.274 54.0649 116.274 54.1368C116.274 54.2232 116.253 54.2807 116.21 54.3095C116.181 54.3382 116.117 54.367 116.018 54.3958C114.181 54.7986 112.53 55 111.064 55Z" stroke="black" stroke-width="2" mask="url(#path-1-inside-1)"/>
<path d="M83.5711 17.6539H113.932V18.9323H83.5711V17.6539Z" stroke="black" stroke-width="2" mask="url(#path-1-inside-1)"/>
<path d="M1.3433 17.6539H30.4393V18.9323H1.3433V17.6539Z" stroke="black" stroke-width="2" mask="url(#path-1-inside-1)"/>
</svg>
