<svg width="37" height="34" viewBox="0 0 37 34" fill="none" xmlns="http://www.w3.org/2000/svg">
<path d="M10.9039 33.7717C12.382 33.7717 13.5802 32.6459 13.5802 31.2572C13.5802 29.8685 12.382 28.7427 10.9039 28.7427C9.42577 28.7427 8.22754 29.8685 8.22754 31.2572C8.22754 32.6459 9.42577 33.7717 10.9039 33.7717Z" fill="#195557"/>
<path d="M36.1359 4.01101C36.0253 3.88281 35.8857 3.77924 35.7274 3.70774C35.569 3.63625 35.3957 3.5986 35.22 3.59751H10.4548L11.228 5.83264H33.6618L30.4859 19.2434H12.6435L7.2075 3.07225C7.1487 2.90066 7.04659 2.74498 6.90989 2.61848C6.77319 2.49199 6.60594 2.39845 6.42243 2.34583L1.54551 0.937696C1.39555 0.894401 1.23799 0.879281 1.08181 0.893199C0.925634 0.907116 0.773903 0.949799 0.635282 1.01881C0.355326 1.15818 0.145765 1.39634 0.0527001 1.68088C-0.0403644 1.96542 -0.00930889 2.27304 0.139035 2.53607C0.287378 2.7991 0.540859 2.99599 0.843713 3.08343L5.11399 4.31275L10.5738 20.5174L8.62299 22.015L8.46836 22.1603C7.98582 22.6827 7.71232 23.3469 7.69495 24.0384C7.67758 24.73 7.91743 25.4056 8.3732 25.9488C8.6974 26.3192 9.10938 26.6132 9.57618 26.8073C10.043 27.0014 10.5516 27.0901 11.0615 27.0664H30.9141C31.2295 27.0664 31.5321 26.9486 31.7552 26.7391C31.9782 26.5295 32.1036 26.2452 32.1036 25.9488C32.1036 25.6524 31.9782 25.3682 31.7552 25.1586C31.5321 24.949 31.2295 24.8313 30.9141 24.8313H10.8711C10.7342 24.8269 10.6007 24.7893 10.4837 24.7223C10.3666 24.6553 10.27 24.5611 10.203 24.4488C10.136 24.3364 10.101 24.2097 10.1014 24.081C10.1017 23.9522 10.1374 23.8257 10.205 23.7137L13.0717 21.4785H31.4374C31.7124 21.4849 31.9812 21.4015 32.1981 21.2425C32.415 21.0836 32.5665 20.8589 32.6269 20.6068L36.3976 4.96094C36.4338 4.79433 36.429 4.62216 36.3837 4.45755C36.3383 4.29293 36.2536 4.14021 36.1359 4.01101Z" fill="#195557"/>
<path d="M29.6436 33.7717C31.1217 33.7717 32.3199 32.6459 32.3199 31.2572C32.3199 29.8685 31.1217 28.7427 29.6436 28.7427C28.1655 28.7427 26.9673 29.8685 26.9673 31.2572C26.9673 32.6459 28.1655 33.7717 29.6436 33.7717Z" fill="#195557"/>
</svg>
