<svg width="72" height="72" viewBox="0 0 72 72" fill="none" xmlns="http://www.w3.org/2000/svg">
<path d="M13.588 35.586C13.588 35.586 9.42004 40.752 9.92004 43.919L7.08704 46.419V47.919C7.08704 47.919 13.92 50.752 20.42 48.752V51.252L20.587 53.752L23.92 55.085C23.92 55.085 27.753 54.419 28.753 49.085C28.753 49.085 32.753 50.585 34.42 54.919L39.087 54.585C39.087 54.585 39.753 52.085 38.92 50.419L59.42 50.085L61.42 51.919V53.919L62.42 55.085H64.587L66.253 53.252L64.42 46.752L65.92 42.085C65.92 42.085 48.587 52.585 24.587 38.919L22.754 35.085C22.754 35.085 18.92 35.752 19.087 36.752C19.087 36.752 18.253 34.086 13.587 35.586H13.588Z" fill="#9B9B9A"/>
<path d="M24.463 26.6381C23.607 28.8881 22.63 29.9321 21.849 30.7241C21.5818 30.9993 21.2226 31.1663 20.8399 31.1933C20.4573 31.2202 20.0781 31.1051 19.775 30.8701L18.591 29.9441L15.167 34.9981C14.9443 35.3267 14.6445 35.5958 14.2938 35.7819C13.943 35.9679 13.552 36.0651 13.155 36.0651C13.155 36.0651 10.483 39.3361 9.55303 42.8711C9.29303 43.8621 8.67103 44.7211 7.84903 45.3331L7.46803 45.6181C7.46803 45.6181 5.11803 47.5801 7.92303 48.4331C7.92303 48.4331 17.546 51.4721 22.879 47.2221M41.379 22.3051C41.379 22.3051 39.555 23.5321 38.179 23.7941C37.589 23.9071 37.017 24.0241 36.464 24.1441L33.296 23.4721C31.725 25.2671 29.542 26.1221 28.005 26.7961M59.963 28.8051C57.977 28.8051 57.413 28.6521 56.293 27.7481C55.4246 27.0494 54.6889 26.2002 54.121 25.2411L53.713 24.5511C51.072 24.5511 48.246 24.2311 45.665 23.8071M66.254 38.5001C63.158 37.3461 62.72 34.0851 61.696 32.7651M20.818 51.7451L20.591 52.2181C20.4444 52.5229 20.3775 52.86 20.3965 53.1978C20.4156 53.5355 20.52 53.8629 20.7 54.1493C20.8801 54.4358 21.1298 54.6718 21.4259 54.8355C21.722 54.9991 22.0547 55.085 22.393 55.0851H24.02C24.3806 55.0853 24.7346 54.988 25.0444 54.8035C25.3542 54.619 25.6084 54.3542 25.78 54.0371L28.625 48.7741C28.625 48.7741 32.126 50.2241 33.379 53.8101C33.652 54.5911 34.428 55.0851 35.255 55.0851H37.278C37.5584 55.0858 37.8357 55.0274 38.0921 54.9138C38.3484 54.8002 38.5779 54.6339 38.7656 54.4257C38.9533 54.2175 39.0951 53.972 39.1817 53.7054C39.2682 53.4387 39.2977 53.1568 39.268 52.8781C39.165 51.9501 38.977 50.9881 38.635 50.5651C38.635 50.5651 53.791 51.0021 58.642 49.9531C59.666 49.7311 60.686 50.3511 60.912 51.3741C61.022 51.8701 61.087 52.4261 61.054 53.0111C60.99 54.1511 61.907 55.0851 63.048 55.0851H63.438C64.562 55.0851 65.438 54.2851 65.511 53.2431C65.634 51.4991 65.497 48.8511 63.963 46.8121C63.963 46.8121 65.096 45.8201 65.075 42.7251M19.21 37.2181C19.21 37.2181 21.334 33.8911 23.23 36.8761C24.509 38.8911 22.922 41.9181 21.755 43.6741C21.4861 44.0776 21.0856 44.3755 20.6218 44.517C20.1579 44.6585 19.6594 44.6348 19.211 44.4501M27.421 34.5971L32.421 30.4721M31.546 40.1201L37.546 38.0621M36.921 32.7651L42.968 29.9721M39.944 43.4721L46.796 42.7251M48.796 36.6331L55.671 37.8651M46.944 32.4901L52.398 29.9871M53.04 43.7691L59.301 45.4461" stroke="#195557" stroke-width="2" stroke-miterlimit="10" stroke-linecap="round" stroke-linejoin="round"/>
</svg>
