<svg width="45" height="44" viewBox="0 0 45 44" fill="none" xmlns="http://www.w3.org/2000/svg">
<path d="M9.01318 21.8665C9.01318 21.8665 6.48399 25.0012 6.78739 26.923L5.0683 28.44V29.3503C5.0683 29.3503 9.21464 31.0693 13.1589 29.8557V31.3728L13.2602 32.8898L15.2828 33.6987C15.2828 33.6987 17.6087 33.2945 18.2155 30.0578C18.2155 30.0578 20.6427 30.968 21.6543 33.5979L24.4863 33.3953C24.4863 33.3953 24.8904 31.8782 24.3849 30.8673L36.8245 30.6646L38.0382 31.7775V32.9911L38.645 33.6987H39.9599L40.9709 32.5864L39.8586 28.6421L40.7688 25.8101C40.7688 25.8101 30.251 32.1816 15.6875 23.889L14.5752 21.5624C14.5752 21.5624 12.2487 21.9672 12.35 22.574C12.35 22.574 11.844 20.9562 9.01257 21.8665H9.01318Z" fill="#9B9B9A"/>
<path d="M15.6122 16.4367C15.0928 17.802 14.5 18.4355 14.026 18.9161C13.8639 19.0831 13.6459 19.1845 13.4137 19.2009C13.1815 19.2172 12.9515 19.1474 12.7675 19.0047L12.0491 18.4428L9.97133 21.5096C9.83621 21.7091 9.65427 21.8724 9.44143 21.9853C9.22859 22.0981 8.99134 22.1571 8.75043 22.1571C8.75043 22.1571 7.12903 24.142 6.5647 26.2871C6.40693 26.8884 6.02949 27.4097 5.53069 27.781L5.2995 27.954C5.2995 27.954 3.87349 29.1445 5.5756 29.6622C5.5756 29.6622 11.4149 31.5063 14.6511 28.9273" stroke="#195557" stroke-width="2" stroke-miterlimit="10" stroke-linecap="round" stroke-linejoin="round"/>
<path d="M25.8771 13.8074C25.8771 13.8074 24.7703 14.5519 23.9353 14.7109C23.5773 14.7795 23.2302 14.8505 22.8946 14.9233L20.9722 14.5155C20.0189 15.6047 18.6943 16.1236 17.7616 16.5326" stroke="#195557" stroke-width="2" stroke-miterlimit="10" stroke-linecap="round" stroke-linejoin="round"/>
<path d="M37.154 17.7517C35.9489 17.7517 35.6067 17.6588 34.927 17.1103C34.4 16.6863 33.9536 16.171 33.609 15.589L33.3615 15.1703C31.7589 15.1703 30.044 14.9761 28.4778 14.7188" stroke="#195557" stroke-width="2" stroke-miterlimit="10" stroke-linecap="round" stroke-linejoin="round"/>
<path d="M40.9715 23.6347C39.0928 22.9344 38.827 20.9556 38.2056 20.1546" stroke="#195557" stroke-width="2" stroke-miterlimit="10" stroke-linecap="round" stroke-linejoin="round"/>
<path d="M13.4004 31.6719L13.2627 31.9589C13.1737 32.1439 13.1331 32.3485 13.1446 32.5534C13.1562 32.7584 13.2196 32.9571 13.3288 33.1309C13.438 33.3047 13.5896 33.4479 13.7693 33.5472C13.9489 33.6465 14.1509 33.6986 14.3561 33.6987H15.3434C15.5622 33.6988 15.777 33.6398 15.965 33.5278C16.153 33.4159 16.3073 33.2552 16.4114 33.0627L18.1378 29.8691C18.1378 29.8691 20.2622 30.749 21.0226 32.925C21.1882 33.3989 21.6591 33.6987 22.1609 33.6987H23.3885C23.5586 33.6991 23.7269 33.6637 23.8825 33.5948C24.038 33.5258 24.1773 33.4249 24.2912 33.2986C24.4051 33.1722 24.4911 33.0233 24.5437 32.8615C24.5962 32.6997 24.6141 32.5286 24.5961 32.3594C24.5336 31.7963 24.4195 31.2126 24.212 30.9559C24.212 30.9559 33.4088 31.2211 36.3524 30.5845C36.9738 30.4498 37.5928 30.826 37.7299 31.4468C37.7966 31.7478 37.8361 32.0852 37.8161 32.4401C37.7772 33.1319 38.3337 33.6987 39.026 33.6987H39.2627C39.9448 33.6987 40.4763 33.2132 40.5206 32.5809C40.5953 31.5226 40.5121 29.9158 39.5813 28.6785C39.5813 28.6785 40.2688 28.0766 40.256 26.1985" stroke="#195557" stroke-width="2" stroke-miterlimit="10" stroke-linecap="round" stroke-linejoin="round"/>
<path d="M12.4247 22.8567C12.4247 22.8567 13.7135 20.8379 14.8641 22.6492C15.6402 23.8719 14.6772 25.7087 13.969 26.7743C13.8058 27.0192 13.5628 27.1999 13.2814 27.2858C12.9999 27.3717 12.6974 27.3573 12.4253 27.2452V27.2452" stroke="#195557" stroke-width="2" stroke-miterlimit="10" stroke-linecap="round" stroke-linejoin="round"/>
<path d="M17.4072 21.2663L20.4413 18.7632" stroke="#195557" stroke-width="2" stroke-miterlimit="10" stroke-linecap="round" stroke-linejoin="round"/>
<path d="M19.9103 24.6177L23.5511 23.3689" stroke="#195557" stroke-width="2" stroke-miterlimit="10" stroke-linecap="round" stroke-linejoin="round"/>
<path d="M23.1719 20.1546L26.8413 18.4598" stroke="#195557" stroke-width="2" stroke-miterlimit="10" stroke-linecap="round" stroke-linejoin="round"/>
<path d="M25.0063 26.6518L29.1642 26.1985" stroke="#195557" stroke-width="2" stroke-miterlimit="10" stroke-linecap="round" stroke-linejoin="round"/>
<path d="M30.3778 22.5018L34.5496 23.2494" stroke="#195557" stroke-width="2" stroke-miterlimit="10" stroke-linecap="round" stroke-linejoin="round"/>
<path d="M29.254 19.9877L32.5635 18.4689" stroke="#195557" stroke-width="2" stroke-miterlimit="10" stroke-linecap="round" stroke-linejoin="round"/>
<path d="M32.9531 26.832L36.7524 27.8496" stroke="#195557" stroke-width="2" stroke-miterlimit="10" stroke-linecap="round" stroke-linejoin="round"/>
</svg>
