<svg width="13" height="11" viewBox="0 0 13 11" fill="none" xmlns="http://www.w3.org/2000/svg">
<path d="M8.66722 7.81763L9.78665 6.87004C9.93742 6.74399 10.1282 6.65771 10.3358 6.62167C10.5433 6.58562 10.7588 6.60136 10.956 6.66698L12.3203 7.12809C12.5196 7.19657 12.6905 7.31345 12.8115 7.46402C12.9324 7.61458 12.998 7.79208 13 7.97415V10.0893C12.9988 10.2132 12.9681 10.3355 12.9096 10.4491C12.8511 10.5626 12.766 10.6649 12.6596 10.7499C12.5531 10.8349 12.4275 10.9007 12.2901 10.9435C12.1528 10.9863 12.0067 11.0051 11.8606 10.9988C2.30048 10.4954 0.371468 3.64231 0.00665532 1.01952C-0.0102795 0.890724 0.00519339 0.760351 0.0520562 0.636979C0.098919 0.513607 0.176109 0.400032 0.27855 0.303726C0.38099 0.207421 0.506358 0.130567 0.646406 0.0782204C0.786455 0.0258741 0.938009 -0.000778021 1.0911 1.72889e-05H3.50486C3.72026 0.000556986 3.93054 0.0556321 4.10865 0.158159C4.28677 0.260685 4.42458 0.405975 4.50435 0.575339L5.04907 1.73021C5.12916 1.89649 5.14959 2.07906 5.10782 2.25511C5.06604 2.43117 4.96392 2.5929 4.81419 2.72011L3.69477 3.66769C3.69477 3.66769 4.33944 7.36075 8.66722 7.81763Z" fill="#195557"/>
</svg>
