<?xml version="1.0" standalone="no"?>
<!DOCTYPE svg PUBLIC "-//W3C//DTD SVG 20010904//EN"
 "http://www.w3.org/TR/2001/REC-SVG-20010904/DTD/svg10.dtd">
<svg version="1.0" xmlns="http://www.w3.org/2000/svg"
 width="260.000000pt" height="260.000000pt" viewBox="0 0 260.000000 260.000000"
 preserveAspectRatio="xMidYMid meet">
<metadata>
Created by potrace 1.11, written by Peter Selinger 2001-2013
</metadata>
<g transform="translate(0.000000,260.000000) scale(0.100000,-0.100000)"
fill="#000000" stroke="none">
<path d="M926 2188 c-8 -13 -35 -84 -61 -158 -26 -74 -51 -139 -56 -144 -5 -5
-70 13 -156 43 -81 28 -158 51 -170 51 -23 0 -42 -25 -38 -50 1 -8 5 -49 9
-90 8 -86 13 -128 21 -187 5 -37 4 -43 -12 -44 -17 0 -31 -2 -133 -14 -25 -3
-74 -8 -110 -11 -79 -8 -100 -18 -100 -49 0 -13 38 -83 85 -157 80 -125 96
-158 77 -158 -12 0 -266 -160 -275 -174 -23 -35 28 -78 231 -196 28 -16 52
-35 52 -40 0 -5 -28 -53 -63 -107 -115 -178 -119 -186 -101 -211 l15 -22 1076
0 1076 0 38 -34 c62 -57 149 -60 210 -9 61 51 75 129 36 197 -26 46 -68 74
-127 84 l-43 7 -144 238 -144 239 103 160 c56 89 104 169 105 179 5 31 -37 46
-157 58 -63 7 -124 14 -135 16 -11 2 -33 4 -48 4 -22 1 -27 5 -23 19 2 9 8 46
11 82 4 36 8 76 10 90 16 137 16 151 5 165 -19 23 -45 19 -185 -31 -71 -26
-139 -48 -151 -51 -24 -5 -20 -13 -88 181 -44 127 -56 146 -86 146 -8 0 -70
-55 -137 -122 l-122 -122 -122 122 c-68 68 -130 122 -140 122 -10 0 -25 -10
-33 -22z m297 -328 c9 0 67 50 128 111 61 61 112 109 114 107 5 -5 87 -240 92
-264 3 -12 15 -27 26 -33 18 -10 45 -3 165 39 79 27 146 50 149 50 4 0 2 -29
-12 -150 -21 -183 -20 -186 56 -195 24 -2 60 -7 79 -9 19 -3 67 -8 105 -11 39
-4 72 -8 74 -10 4 -4 -17 -40 -87 -149 l-44 -68 -38 59 c-21 33 -45 63 -53 66
-19 7 -79 -15 -177 -66 -170 -89 -290 -205 -363 -353 -30 -61 -38 -82 -54
-144 -9 -38 -11 -180 -2 -224 5 -27 7 -51 5 -53 -5 -6 -1129 -3 -1134 2 -3 2
30 58 72 123 42 66 76 128 76 139 0 26 -13 36 -153 123 l-117 73 64 41 c36 22
97 61 135 85 38 24 71 51 74 60 2 9 -33 76 -79 148 -46 73 -80 134 -76 137 4
2 39 7 77 11 39 4 81 8 95 10 14 2 50 7 80 10 30 4 59 10 64 15 12 12 10 63
-9 204 -2 17 -7 52 -10 79 -3 26 -4 47 0 47 3 0 71 -23 151 -50 159 -56 172
-55 191 2 30 90 84 242 89 250 4 6 57 -40 118 -101 61 -61 119 -111 129 -111z
m820 -715 c44 -71 87 -143 97 -160 9 -16 56 -93 103 -171 l86 -141 -24 -47
c-13 -25 -25 -51 -27 -57 -3 -8 -107 -12 -363 -11 -198 0 -376 1 -396 1 -44 1
-50 15 -55 137 -4 98 14 173 64 269 63 120 214 253 365 320 47 21 53 21 61 6
5 -9 45 -74 89 -146z m441 -546 c32 -25 34 -66 6 -97 -26 -28 -67 -28 -97 0
-30 28 -29 63 2 93 30 30 54 31 89 4z"/>
<path d="M1870 981 c-24 -46 3 -71 76 -71 67 0 94 13 94 45 0 33 -27 45 -99
45 -49 0 -62 -4 -71 -19z"/>
</g>
</svg>
