<svg width="37" height="34" viewBox="0 0 37 34" fill="none" xmlns="http://www.w3.org/2000/svg">
<path d="M12.6435 33.7718C14.1216 33.7718 15.3198 32.6461 15.3198 31.2573C15.3198 29.8686 14.1216 28.7428 12.6435 28.7428C11.1654 28.7428 9.96716 29.8686 9.96716 31.2573C9.96716 32.6461 11.1654 33.7718 12.6435 33.7718Z" fill="#195557"/>
<path d="M28.9039 33.7718C30.382 33.7718 31.5802 32.6461 31.5802 31.2573C31.5802 29.8686 30.382 28.7428 28.9039 28.7428C27.4258 28.7428 26.2275 29.8686 26.2275 31.2573C26.2275 32.6461 27.4258 33.7718 28.9039 33.7718Z" fill="#195557"/>
<path d="M36.1359 4.01101C36.0253 3.88281 35.8857 3.77924 35.7274 3.70774C35.569 3.63624 35.3957 3.5986 35.22 3.59751H10.4548L11.228 5.83264H33.6618L30.4859 19.2435H12.6435L7.2075 3.07225C7.1487 2.90066 7.04659 2.74497 6.90989 2.61848C6.77319 2.49199 6.60594 2.39845 6.42243 2.34583L1.54551 0.937695C1.39555 0.894401 1.23799 0.879281 1.08181 0.893199C0.925634 0.907116 0.773903 0.949799 0.635282 1.01881C0.355326 1.15818 0.145765 1.39634 0.0527001 1.68088C-0.0403644 1.96542 -0.00930887 2.27304 0.139035 2.53607C0.287378 2.7991 0.540859 2.99599 0.843713 3.08343L5.11399 4.31275L10.5738 20.5175L8.62299 22.015L8.46836 22.1603C7.98582 22.6828 7.71232 23.347 7.69495 24.0385C7.67758 24.73 7.91743 25.4056 8.3732 25.9489C8.6974 26.3193 9.10938 26.6133 9.57618 26.8073C10.043 27.0014 10.5516 27.0901 11.0615 27.0664H30.9141C31.2295 27.0664 31.5321 26.9487 31.7552 26.7391C31.9782 26.5295 32.1036 26.2453 32.1036 25.9489C32.1036 25.6525 31.9782 25.3682 31.7552 25.1586C31.5321 24.949 31.2295 24.8313 30.9141 24.8313H10.8711C10.7342 24.8269 10.6007 24.7894 10.4837 24.7224C10.3666 24.6554 10.27 24.5612 10.203 24.4488C10.136 24.3365 10.101 24.2098 10.1014 24.081C10.1017 23.9522 10.1374 23.8257 10.205 23.7137L13.0717 21.4786H31.4374C31.7124 21.4849 31.9812 21.4015 32.1981 21.2426C32.415 21.0836 32.5665 20.859 32.6269 20.6069L36.3976 4.96094C36.4338 4.79433 36.429 4.62216 36.3837 4.45755C36.3383 4.29293 36.2536 4.14021 36.1359 4.01101Z" fill="#195557"/>
</svg>
