<svg width="7" height="10" viewBox="0 0 7 10" fill="none" xmlns="http://www.w3.org/2000/svg">
<path d="M0.306646 9.11919C0.374049 9.15425 0.449726 9.17029 0.525556 9.16559C0.601385 9.16089 0.674504 9.13563 0.737063 9.09252L6.15373 5.34252C6.20908 5.30418 6.25431 5.25299 6.28555 5.19334C6.31679 5.13369 6.33311 5.06736 6.33311 5.00002C6.33311 4.93269 6.31679 4.86636 6.28555 4.80671C6.25431 4.74706 6.20908 4.69587 6.15373 4.65752L0.737063 0.907522C0.674552 0.864269 0.6014 0.838941 0.525527 0.83428C0.449654 0.829619 0.373952 0.845803 0.306617 0.88108C0.239282 0.916357 0.182881 0.969382 0.14352 1.03441C0.104159 1.09945 0.0833386 1.17401 0.083313 1.25002V8.75002C0.0833005 8.82608 0.104106 8.90069 0.143474 8.96577C0.182843 9.03084 0.239272 9.0839 0.306646 9.11919Z" fill="#195557"/>
</svg>
